<?xml version="1.0" standalone="no"?><?xml-stylesheet type="text/css" href="https://www.processon.com/themes/default/mind/icons/icons.css" ?><!DOCTYPE svg PUBLIC "-//W3C//DTD SVG 1.1//EN" "http://www.w3.org/Graphics/SVG/1.1/DTD/svg11.dtd">
<svg xmlns="http://www.w3.org/2000/svg" version="1.1" xlink="http://www.w3.org/1999/xlink" id="mind-svg-con" width="1009.0625px" height="489.125px" style="position: absolute; left: 0px; top: 0px; width: 1009.06px; height: 489.125px; background: rgb(246, 246, 246); z-index: 999;"><defs></defs><g id="svgbackgroundid"><defs></defs><rect x="0" y="0" width="1009.0625" height="489.125" fill="#f6f6f6"></rect></g><g transform="translate(-9576.46875, -9696)" id="sdjakdjak6"><defs></defs><g class="svg-topic-con" transform="translate(0.5,0.5)"><path part="right" sub="true" id="line_f3f5dadcb66f" d="M 9999.5 9940.5 C 9999.5 9940.5 10009.5 9788 10168.5 9788" stroke="#8A8A8A" fill="none" stroke-width="2"></path><path part="right" sub="true" id="line_a4c9b1539269" d="M 9999.5 9940.5 C 9999.5 9940.5 10009.5 9916 10168.5 9916" stroke="#8A8A8A" fill="none" stroke-width="2"></path><path part="right" sub="true" id="line_71925612a58d" d="M 9999.5 9940.5 C 9999.5 9940.5 10009.5 10069 10168.5 10069" stroke="#8A8A8A" fill="none" stroke-width="2"></path><path part="left" sub="true" id="line_e18a8c220e2c" d="M 9999.5 9940.5 C 9999.5 9940.5 9989.5 9889 9830.5 9889" stroke="#8A8A8A" fill="none" stroke-width="2"></path><path part="left" sub="true" id="line_9ee7c2286c23" d="M 9999.5 9940.5 C 9999.5 9940.5 9989.5 9973.5 9830.5 9973.5" stroke="#8A8A8A" fill="none" stroke-width="2"></path></g><g class="svg-connection-con" transform="translate(0.5,0.5)"></g><g class="svg-freesums-con" transform="translate(0.5,0.5)"></g><g class="svg-freebos-con" transform="translate(0.5,0.5)"></g></g><g id="71925612a58d"><rect x="592.03125" y="354.453125" rx="4px" ry="4px" width="106" height="37" style="fill: #ffffff; stroke:#444;stroke-width:1px;"></rect><g><text text-anchor="start" align="top" anchor="start" font-size="16px" font-weight="normal" fill="rgb(35, 40, 45)" style="font-size:16px;font-family: 微软雅黑;color:#23282D;font-style:normal;text-align:left;font-weight:normal;font-style: normal;"><tspan x="613.03125" y="377.453125"><tspan>点餐模块</tspan></tspan></text></g></g><g id="dc3ed8687cd8"><rect x="722.046875" y="336.375" rx="1px" ry="1px" width="94" height="21" style="fill: transparent; stroke:none;"></rect><g><text text-anchor="start" align="top" anchor="start" font-size="13px" font-weight="400" fill="rgb(35, 40, 45)" style="font-size:13px;font-family: 微软雅黑;color:#23282D;font-style:normal;text-align:left;font-weight:400;font-style: normal;"><tspan x="730.046875" y="351.375"><tspan>分类显示模块</tspan></tspan></text></g></g><g id="359f980afbba"><rect x="840.046875" y="286" rx="1px" ry="1px" width="46" height="20" style="fill: transparent; stroke:none;"></rect><g><text text-anchor="start" align="top" anchor="start" font-size="13px" font-weight="400" fill="rgb(35, 40, 45)" style="font-size:13px;font-family: 微软雅黑;color:#23282D;font-style:normal;text-align:left;font-weight:400;font-style: normal;"><tspan x="848.046875" y="301"><tspan>类型</tspan></tspan></text></g></g><g id="f3facaf91960"><rect x="840.046875" y="311.1875" rx="1px" ry="1px" width="46" height="20" style="fill: transparent; stroke:none;"></rect><g><text text-anchor="start" align="top" anchor="start" font-size="13px" font-weight="400" fill="rgb(35, 40, 45)" style="font-size:13px;font-family: 微软雅黑;color:#23282D;font-style:normal;text-align:left;font-weight:400;font-style: normal;"><tspan x="848.046875" y="326.1875"><tspan>数量</tspan></tspan></text></g></g><g id="b5b43c41750b"><rect x="840.046875" y="336.375" rx="1px" ry="1px" width="46" height="20" style="fill: transparent; stroke:none;"></rect><g><text text-anchor="start" align="top" anchor="start" font-size="13px" font-weight="400" fill="rgb(35, 40, 45)" style="font-size:13px;font-family: 微软雅黑;color:#23282D;font-style:normal;text-align:left;font-weight:400;font-style: normal;"><tspan x="848.046875" y="351.375"><tspan>价格</tspan></tspan></text></g></g><g id="d068e5856902"><rect x="840.046875" y="361.5625" rx="1px" ry="1px" width="46" height="20" style="fill: transparent; stroke:none;"></rect><g><text text-anchor="start" align="top" anchor="start" font-size="13px" font-weight="400" fill="rgb(35, 40, 45)" style="font-size:13px;font-family: 微软雅黑;color:#23282D;font-style:normal;text-align:left;font-weight:400;font-style: normal;"><tspan x="848.046875" y="376.5625"><tspan>质量</tspan></tspan></text></g></g><g id="e4bd37a10570"><rect x="840.046875" y="386.75" rx="1px" ry="1px" width="46" height="20" style="fill: transparent; stroke:none;"></rect><g><text text-anchor="start" align="top" anchor="start" font-size="13px" font-weight="400" fill="rgb(35, 40, 45)" style="font-size:13px;font-family: 微软雅黑;color:#23282D;font-style:normal;text-align:left;font-weight:400;font-style: normal;"><tspan x="848.046875" y="401.75"><tspan>销量</tspan></tspan></text></g></g><g id="bb8cb3eec40b"><rect x="722.046875" y="424.53125" rx="1px" ry="1px" width="81" height="20" style="fill: transparent; stroke:none;"></rect><g><text text-anchor="start" align="top" anchor="start" font-size="13px" font-weight="400" fill="rgb(35, 40, 45)" style="font-size:13px;font-family: 微软雅黑;color:#23282D;font-style:normal;text-align:left;font-weight:400;font-style: normal;"><tspan x="730.046875" y="439.53125"><tspan>购物车模块</tspan></tspan></text></g></g><g id="c19add75ae09"><rect x="827.046875" y="411.9375" rx="1px" ry="1px" width="46" height="20" style="fill: transparent; stroke:none;"></rect><g><text text-anchor="start" align="top" anchor="start" font-size="13px" font-weight="400" fill="rgb(35, 40, 45)" style="font-size:13px;font-family: 微软雅黑;color:#23282D;font-style:normal;text-align:left;font-weight:400;font-style: normal;"><tspan x="835.046875" y="426.9375"><tspan>总量</tspan></tspan></text></g></g><g id="e947822b9c48"><rect x="827.046875" y="437.125" rx="1px" ry="1px" width="46" height="20" style="fill: transparent; stroke:none;"></rect><g><text text-anchor="start" align="top" anchor="start" font-size="13px" font-weight="400" fill="rgb(35, 40, 45)" style="font-size:13px;font-family: 微软雅黑;color:#23282D;font-style:normal;text-align:left;font-weight:400;font-style: normal;"><tspan x="835.046875" y="452.125"><tspan>总价</tspan></tspan></text></g></g><g id="a4c9b1539269"><rect x="592.03125" y="201.078125" rx="4px" ry="4px" width="138" height="36" style="fill: #ffffff; stroke:#444;stroke-width:1px;"></rect><g><text text-anchor="start" align="top" anchor="start" font-size="16px" font-weight="normal" fill="rgb(35, 40, 45)" style="font-size:16px;font-family: 微软雅黑;color:#23282D;font-style:normal;text-align:left;font-weight:normal;font-style: normal;"><tspan x="613.03125" y="224.078125"><tspan>主页推荐模块</tspan></tspan></text></g></g><g id="70b5ffacd9db"><rect x="754.046875" y="195.59375" rx="1px" ry="1px" width="107" height="20" style="fill: transparent; stroke:none;"></rect><g><text text-anchor="start" align="top" anchor="start" font-size="13px" font-weight="400" fill="rgb(35, 40, 45)" style="font-size:13px;font-family: 微软雅黑;color:#23282D;font-style:normal;text-align:left;font-weight:400;font-style: normal;"><tspan x="762.046875" y="210.59375"><tspan>图片与视频模块</tspan></tspan></text></g></g><g id="441396451022"><rect x="885.0625" y="183" rx="1px" ry="1px" width="68" height="20" style="fill: transparent; stroke:none;"></rect><g><text text-anchor="start" align="top" anchor="start" font-size="13px" font-weight="400" fill="rgb(35, 40, 45)" style="font-size:13px;font-family: 微软雅黑;color:#23282D;font-style:normal;text-align:left;font-weight:400;font-style: normal;"><tspan x="893.0625" y="198"><tspan>动态显示</tspan></tspan></text></g></g><g id="3e891e0a7b87"><rect x="885.0625" y="208.1875" rx="1px" ry="1px" width="94" height="20" style="fill: transparent; stroke:none;"></rect><g><text text-anchor="start" align="top" anchor="start" font-size="13px" font-weight="400" fill="rgb(35, 40, 45)" style="font-size:13px;font-family: 微软雅黑;color:#23282D;font-style:normal;text-align:left;font-weight:400;font-style: normal;"><tspan x="893.0625" y="223.1875"><tspan>快捷导航模块</tspan></tspan></text></g></g><g id="1beacd1b2ed8"><rect x="754.046875" y="233.375" rx="1px" ry="1px" width="120" height="20" style="fill: transparent; stroke:none;"></rect><g><text text-anchor="start" align="top" anchor="start" font-size="13px" font-weight="400" fill="rgb(35, 40, 45)" style="font-size:13px;font-family: 微软雅黑;color:#23282D;font-style:normal;text-align:left;font-weight:400;font-style: normal;"><tspan x="762.046875" y="248.375"><tspan>优惠信息同步模块</tspan></tspan></text></g></g><g id="f3f5dadcb66f"><rect x="592.03125" y="73.265625" rx="4px" ry="4px" width="106" height="37" style="fill: #ffffff; stroke:#444;stroke-width:1px;"></rect><g><text text-anchor="start" align="top" anchor="start" font-size="16px" font-weight="normal" fill="rgb(35, 40, 45)" style="font-size:16px;font-family: 微软雅黑;color:#23282D;font-style:normal;text-align:left;font-weight:normal;font-style: normal;"><tspan x="613.03125" y="96.265625"><tspan>登陆模块</tspan></tspan></text></g></g><g id="8fa575b07cc0"><rect x="722.046875" y="42.59375" rx="1px" ry="1px" width="46" height="20" style="fill: transparent; stroke:none;"></rect><g><text text-anchor="start" align="top" anchor="start" font-size="13px" font-weight="400" fill="rgb(35, 40, 45)" style="font-size:13px;font-family: 微软雅黑;color:#23282D;font-style:normal;text-align:left;font-weight:400;font-style: normal;"><tspan x="730.046875" y="57.59375"><tspan>注册</tspan></tspan></text></g></g><g id="52f83d30a93f"><rect x="792.046875" y="30" rx="1px" ry="1px" width="81" height="20" style="fill: transparent; stroke:none;"></rect><g><text text-anchor="start" align="top" anchor="start" font-size="13px" font-weight="400" fill="rgb(35, 40, 45)" style="font-size:13px;font-family: 微软雅黑;color:#23282D;font-style:normal;text-align:left;font-weight:400;font-style: normal;"><tspan x="800.046875" y="45"><tspan>手机号注册</tspan></tspan></text></g></g><g id="3bb1c087c683"><rect x="792.046875" y="55.1875" rx="1px" ry="1px" width="68" height="20" style="fill: transparent; stroke:none;"></rect><g><text text-anchor="start" align="top" anchor="start" font-size="13px" font-weight="400" fill="rgb(35, 40, 45)" style="font-size:13px;font-family: 微软雅黑;color:#23282D;font-style:normal;text-align:left;font-weight:400;font-style: normal;"><tspan x="800.046875" y="70.1875"><tspan>微信注册</tspan></tspan></text></g></g><g id="a0a79e67286c"><rect x="722.046875" y="105.5625" rx="1px" ry="1px" width="46" height="20" style="fill: transparent; stroke:none;"></rect><g><text text-anchor="start" align="top" anchor="start" font-size="13px" font-weight="400" fill="rgb(35, 40, 45)" style="font-size:13px;font-family: 微软雅黑;color:#23282D;font-style:normal;text-align:left;font-weight:400;font-style: normal;"><tspan x="730.046875" y="120.5625"><tspan>登陆</tspan></tspan></text></g></g><g id="62a51829db04"><rect x="792.046875" y="80.375" rx="1px" ry="1px" width="68" height="20" style="fill: transparent; stroke:none;"></rect><g><text text-anchor="start" align="top" anchor="start" font-size="13px" font-weight="400" fill="rgb(35, 40, 45)" style="font-size:13px;font-family: 微软雅黑;color:#23282D;font-style:normal;text-align:left;font-weight:400;font-style: normal;"><tspan x="800.046875" y="95.375"><tspan>微信登陆</tspan></tspan></text></g></g><g id="055df310eccd"><rect x="792.046875" y="105.5625" rx="1px" ry="1px" width="81" height="20" style="fill: transparent; stroke:none;"></rect><g><text text-anchor="start" align="top" anchor="start" font-size="13px" font-weight="400" fill="rgb(35, 40, 45)" style="font-size:13px;font-family: 微软雅黑;color:#23282D;font-style:normal;text-align:left;font-weight:400;font-style: normal;"><tspan x="800.046875" y="120.5625"><tspan>手机号登陆</tspan></tspan></text></g></g><g id="8cea25b9aa82"><rect x="792.046875" y="130.75" rx="1px" ry="1px" width="94" height="20" style="fill: transparent; stroke:none;"></rect><g><text text-anchor="start" align="top" anchor="start" font-size="13px" font-weight="400" fill="rgb(35, 40, 45)" style="font-size:13px;font-family: 微软雅黑;color:#23282D;font-style:normal;text-align:left;font-weight:400;font-style: normal;"><tspan x="800.046875" y="145.75"><tspan>帐号密码登陆</tspan></tspan></text></g></g><g id="7f2452e4175a"><rect x="69" y="241" rx="1px" ry="1px" width="55" height="20" style="fill: transparent; stroke:none;"></rect><g><text text-anchor="start" align="top" anchor="start" font-size="13px" font-weight="400" fill="rgb(35, 40, 45)" style="font-size:13px;font-family: 微软雅黑;color:#23282D;font-style:normal;text-align:left;font-weight:400;font-style: normal;"><tspan x="77" y="256"><tspan>支付宝</tspan></tspan></text></g></g><g id="1a5484a9ee64"><rect x="78.015625" y="266.1875" rx="1px" ry="1px" width="46" height="20" style="fill: transparent; stroke:none;"></rect><g><text text-anchor="start" align="top" anchor="start" font-size="13px" font-weight="400" fill="rgb(35, 40, 45)" style="font-size:13px;font-family: 微软雅黑;color:#23282D;font-style:normal;text-align:left;font-weight:400;font-style: normal;"><tspan x="86.015625" y="281.1875"><tspan>微信</tspan></tspan></text></g></g><g id="37f443d4d7c8"><rect x="78.015625" y="291.375" rx="1px" ry="1px" width="46" height="20" style="fill: transparent; stroke:none;"></rect><g><text text-anchor="start" align="top" anchor="start" font-size="13px" font-weight="400" fill="rgb(35, 40, 45)" style="font-size:13px;font-family: 微软雅黑;color:#23282D;font-style:normal;text-align:left;font-weight:400;font-style: normal;"><tspan x="86.015625" y="306.375"><tspan>现金</tspan></tspan></text></g></g><g id="9ee7c2286c23"><rect x="148.015625" y="259.078125" rx="4px" ry="4px" width="106" height="36" style="fill: #ffffff; stroke:#444;stroke-width:1px;"></rect><g><text text-anchor="start" align="top" anchor="start" font-size="16px" font-weight="normal" fill="rgb(35, 40, 45)" style="font-size:16px;font-family: 微软雅黑;color:#23282D;font-style:normal;text-align:left;font-weight:normal;font-style: normal;"><tspan x="169.015625" y="282.078125"><tspan>支付模块</tspan></tspan></text></g></g><g id="bd71635fda63"><rect x="30" y="182.109375" rx="1px" ry="1px" width="94" height="20" style="fill: transparent; stroke:none;"></rect><g><text text-anchor="start" align="top" anchor="start" font-size="13px" font-weight="400" fill="rgb(35, 40, 45)" style="font-size:13px;font-family: 微软雅黑;color:#23282D;font-style:normal;text-align:left;font-weight:400;font-style: normal;"><tspan x="38" y="197.109375"><tspan>餐品详情模块</tspan></tspan></text></g></g><g id="e18a8c220e2c"><rect x="148.015625" y="175" rx="4px" ry="4px" width="106" height="36" style="fill: #ffffff; stroke:#444;stroke-width:1px;"></rect><g><text text-anchor="start" align="top" anchor="start" font-size="16px" font-weight="normal" fill="rgb(35, 40, 45)" style="font-size:16px;font-family: 微软雅黑;color:#23282D;font-style:normal;text-align:left;font-weight:normal;font-style: normal;"><tspan x="169.015625" y="198"><tspan>用餐模块</tspan></tspan></text></g></g><g transform="translate(592.03125, 286)" id="sdjakdjak0"><g id="subline_71925612a58d" transform="translate(0.5,-0.5)"><path id="line_dc3ed8687cd8" d="M 106 87 L 124 87 L 124 76 A 4 4 0 0 1 128 72 L 224.015625 72" p="71925612a58d" stroke="#8A8A8A" fill="none" stroke-linecap="square" stroke-width="1"></path><path id="line_359f980afbba" d="M 224.015625 72 L 243 72 L 243 26 A 4 4 0 0 1 247 22 L 294.015625 22" p="dc3ed8687cd8" stroke="#8A8A8A" fill="none" stroke-linecap="square" stroke-width="1"></path><path id="line_f3facaf91960" d="M 224.015625 72 L 243 72 L 243 51 A 4 4 0 0 1 247 47 L 294.015625 47" p="dc3ed8687cd8" stroke="#8A8A8A" fill="none" stroke-linecap="square" stroke-width="1"></path><path id="line_b5b43c41750b" d="M 224.015625 72 L 243 72 L 243 72 L 294.015625 72" p="dc3ed8687cd8" stroke="#8A8A8A" fill="none" stroke-linecap="square" stroke-width="1"></path><path id="line_d068e5856902" d="M 224.015625 72 L 243 72 L 243 93 A 4 4 0 0 0 247 97 L 294.015625 97" p="dc3ed8687cd8" stroke="#8A8A8A" fill="none" stroke-linecap="square" stroke-width="1"></path><path id="line_e4bd37a10570" d="M 224.015625 72 L 243 72 L 243 118 A 4 4 0 0 0 247 122 L 294.015625 122" p="dc3ed8687cd8" stroke="#8A8A8A" fill="none" stroke-linecap="square" stroke-width="1"></path><path id="line_bb8cb3eec40b" d="M 106 87 L 124 87 L 124 156 A 4 4 0 0 0 128 160 L 211.015625 160" p="71925612a58d" stroke="#8A8A8A" fill="none" stroke-linecap="square" stroke-width="1"></path><path id="line_c19add75ae09" d="M 211.015625 160 L 230 160 L 230 147 L 281.015625 147" p="bb8cb3eec40b" stroke="#8A8A8A" fill="none" stroke-linecap="square" stroke-width="1"></path><path id="line_e947822b9c48" d="M 211.015625 160 L 230 160 L 230 173 L 281.015625 173" p="bb8cb3eec40b" stroke="#8A8A8A" fill="none" stroke-linecap="square" stroke-width="1"></path></g><g transform="translate(0.5,0)"></g><g class="svg-summary-con" transform="translate(0.5,0.5)"></g><g class="svg-boundary-con" transform="translate(0.5,0.5)"></g></g><g transform="translate(592.03125, 183)" id="sdjakdjak1"><g id="subline_a4c9b1539269" transform="translate(0.5,-0.5)"><path id="line_70b5ffacd9db" d="M 138 37 L 156 37 L 156 38 A 4 4 0 0 1 160 34 L 269.015625 34" p="a4c9b1539269" stroke="#8A8A8A" fill="none" stroke-linecap="square" stroke-width="1"></path><path id="line_441396451022" d="M 269.015625 34 L 288 34 L 288 22 L 361.03125 22" p="70b5ffacd9db" stroke="#8A8A8A" fill="none" stroke-linecap="square" stroke-width="1"></path><path id="line_3e891e0a7b87" d="M 269.015625 34 L 288 34 L 288 47 L 387.03125 47" p="70b5ffacd9db" stroke="#8A8A8A" fill="none" stroke-linecap="square" stroke-width="1"></path><path id="line_1beacd1b2ed8" d="M 138 37 L 156 37 L 156 72 L 282.015625 72" p="a4c9b1539269" stroke="#8A8A8A" fill="none" stroke-linecap="square" stroke-width="1"></path></g><g transform="translate(0.5,0)"></g><g class="svg-summary-con" transform="translate(0.5,0.5)"></g><g class="svg-boundary-con" transform="translate(0.5,0.5)"></g></g><g transform="translate(592.03125, 30)" id="sdjakdjak2"><g id="subline_f3f5dadcb66f" transform="translate(0.5,-0.5)"><path id="line_8fa575b07cc0" d="M 106 62 L 124 62 L 124 38 A 4 4 0 0 1 128 34 L 176.015625 34" p="f3f5dadcb66f" stroke="#8A8A8A" fill="none" stroke-linecap="square" stroke-width="1"></path><path id="line_52f83d30a93f" d="M 176.015625 34 L 195 34 L 195 22 L 281.015625 22" p="8fa575b07cc0" stroke="#8A8A8A" fill="none" stroke-linecap="square" stroke-width="1"></path><path id="line_3bb1c087c683" d="M 176.015625 34 L 195 34 L 195 47 L 268.015625 47" p="8fa575b07cc0" stroke="#8A8A8A" fill="none" stroke-linecap="square" stroke-width="1"></path><path id="line_a0a79e67286c" d="M 106 62 L 124 62 L 124 97 L 176.015625 97" p="f3f5dadcb66f" stroke="#8A8A8A" fill="none" stroke-linecap="square" stroke-width="1"></path><path id="line_62a51829db04" d="M 176.015625 97 L 195 97 L 195 76 A 4 4 0 0 1 199 72 L 268.015625 72" p="a0a79e67286c" stroke="#8A8A8A" fill="none" stroke-linecap="square" stroke-width="1"></path><path id="line_055df310eccd" d="M 176.015625 97 L 195 97 L 195 97 L 281.015625 97" p="a0a79e67286c" stroke="#8A8A8A" fill="none" stroke-linecap="square" stroke-width="1"></path><path id="line_8cea25b9aa82" d="M 176.015625 97 L 195 97 L 195 118 A 4 4 0 0 0 199 122 L 294.015625 122" p="a0a79e67286c" stroke="#8A8A8A" fill="none" stroke-linecap="square" stroke-width="1"></path></g><g transform="translate(0.5,0)"></g><g class="svg-summary-con" transform="translate(0.5,0.5)"></g><g class="svg-boundary-con" transform="translate(0.5,0.5)"></g></g><g transform="translate(69, 241)" id="sdjakdjak3"><g id="subline_9ee7c2286c23" transform="translate(0.5,-0.5)"><path id="line_7f2452e4175a" d="M 79.015625 36 L 62 36 L 62 26 A 4 4 0 0 0 58 22 L 0 22" p="9ee7c2286c23" stroke="#8A8A8A" fill="none" stroke-linecap="square" stroke-width="1"></path><path id="line_1a5484a9ee64" d="M 79.015625 36 L 62 36 L 62 47 L 9.015625 47" p="9ee7c2286c23" stroke="#8A8A8A" fill="none" stroke-linecap="square" stroke-width="1"></path><path id="line_37f443d4d7c8" d="M 79.015625 36 L 62 36 L 62 72 L 9.015625 72" p="9ee7c2286c23" stroke="#8A8A8A" fill="none" stroke-linecap="square" stroke-width="1"></path></g><g transform="translate(0.5,0)"></g><g class="svg-summary-con" transform="translate(0.5,0.5)"></g><g class="svg-boundary-con" transform="translate(0.5,0.5)"></g></g><g transform="translate(30, 175)" id="sdjakdjak4"><g id="subline_e18a8c220e2c" transform="translate(0.5,-0.5)"><path id="line_bd71635fda63" d="M 118.015625 18 L 101 18 L 101 29 L 0 29" p="e18a8c220e2c" stroke="#8A8A8A" fill="none" stroke-linecap="square" stroke-width="1"></path></g><g transform="translate(0.5,0)"></g><g class="svg-summary-con" transform="translate(0.5,0.5)"></g><g class="svg-boundary-con" transform="translate(0.5,0.5)"></g></g><g transform="translate(304.03125, 215)" id="sdjakdjak5"><g id="subline_root" transform="translate(0.5,-0.5)"></g><g transform="translate(0.5,0)"></g><g class="svg-summary-con" transform="translate(0.5,0.5)"></g><g class="svg-boundary-con" transform="translate(0.5,0.5)"></g></g><g id="root"><rect x="304.03125" y="215" rx="6px" ry="6px" width="239" height="59" style="fill: #50C28B; stroke:#50C28B;stroke-width:2px;"></rect><g><text text-anchor="start" align="top" anchor="start" font-size="25px" font-weight="normal" fill="rgb(255, 255, 255)" style="font-size:25px;font-family: 微软雅黑;color:#fff;font-style:normal;text-align:left;font-weight:normal;font-style: normal;"><tspan x="338.03125" y="252"><tspan>人造肉点餐APP</tspan></tspan></text></g></g></svg>
