<?xml version="1.0" standalone="no"?><?xml-stylesheet type="text/css" href="https://www.processon.com/themes/default/mind/icons/icons.css" ?><!DOCTYPE svg PUBLIC "-//W3C//DTD SVG 1.1//EN" "http://www.w3.org/Graphics/SVG/1.1/DTD/svg11.dtd">
<svg xmlns="http://www.w3.org/2000/svg" version="1.1" xlink="http://www.w3.org/1999/xlink" id="mind-svg-con" width="1206.0625px" height="739.75px" style="position: absolute; left: 0px; top: 0px; width: 1206.06px; height: 739.75px; background: rgb(246, 246, 246); z-index: 999;"><defs></defs><g id="svgbackgroundid"><defs></defs><rect x="0" y="0" width="1206.0625" height="739.75" fill="#f6f6f6"></rect></g><g transform="translate(-9352.96875, -9571)" id="sdjakdjak5"><defs></defs><g class="svg-topic-con" transform="translate(0.5,0.5)"><path part="right" sub="true" id="line_1134447d61b8" d="M 10000 9940.5 C 10000 9940.5 10010 9663 10209 9663" stroke="#8A8A8A" fill="none" stroke-width="2"></path><path part="right" sub="true" id="line_13e459d6f1e9" d="M 10000 9940.5 C 10000 9940.5 10010 10017 10209 10017" stroke="#8A8A8A" fill="none" stroke-width="2"></path><path part="left" sub="true" id="line_4bec7a00707d" d="M 10000 9940.5 C 10000 9940.5 9990 9776.5 9791 9776.5" stroke="#8A8A8A" fill="none" stroke-width="2"></path><path part="left" sub="true" id="line_3214057c4157" d="M 10000 9940.5 C 10000 9940.5 9990 10080.5 9791 10080.5" stroke="#8A8A8A" fill="none" stroke-width="2"></path></g><g class="svg-connection-con" transform="translate(0.5,0.5)"></g><g class="svg-freesums-con" transform="translate(0.5,0.5)"></g><g class="svg-freebos-con" transform="translate(0.5,0.5)"></g></g><g id="13e459d6f1e9"><rect x="856.03125" y="427.765625" rx="4px" ry="4px" width="106" height="36" style="fill: #ffffff; stroke:#444;stroke-width:1px;"></rect><g><text text-anchor="start" align="top" anchor="start" font-size="16px" font-weight="normal" fill="rgb(35, 40, 45)" style="font-size:16px;font-family: 微软雅黑;color:#23282D;font-style:normal;text-align:left;font-weight:normal;font-style: normal;"><tspan x="877.03125" y="450.765625"><tspan>点餐界面</tspan></tspan></text></g></g><g id="4bc21769304a"><rect x="986.046875" y="208.1875" rx="1px" ry="1px" width="81" height="20" style="fill: transparent; stroke:none;"></rect><g><text text-anchor="start" align="top" anchor="start" font-size="13px" font-weight="400" fill="rgb(35, 40, 45)" style="font-size:13px;font-family: 微软雅黑;color:#23282D;font-style:normal;text-align:left;font-weight:400;font-style: normal;"><tspan x="994.046875" y="223.1875"><tspan>基本信息栏</tspan></tspan></text></g></g><g id="fe643ae9ace2"><rect x="1091.046875" y="183" rx="1px" ry="1px" width="55" height="20" style="fill: transparent; stroke:none;"></rect><g><text text-anchor="start" align="top" anchor="start" font-size="13px" font-weight="400" fill="rgb(35, 40, 45)" style="font-size:13px;font-family: 微软雅黑;color:#23282D;font-style:normal;text-align:left;font-weight:400;font-style: normal;"><tspan x="1099.046875" y="198"><tspan>餐桌号</tspan></tspan></text></g></g><g id="958af13cc92f"><rect x="1091.046875" y="208.1875" rx="1px" ry="1px" width="72" height="20" style="fill: transparent; stroke:none;"></rect><g><text text-anchor="start" align="top" anchor="start" font-size="13px" font-weight="400" fill="rgb(35, 40, 45)" style="font-size:13px;font-family: 微软雅黑;color:#23282D;font-style:normal;text-align:left;font-weight:400;font-style: normal;"><tspan x="1099.046875" y="223.1875"><tspan>登陆/用户</tspan></tspan></text></g></g><g id="0bfd0ee96805"><rect x="1091.046875" y="233.375" rx="1px" ry="1px" width="46" height="20" style="fill: transparent; stroke:none;"></rect><g><text text-anchor="start" align="top" anchor="start" font-size="13px" font-weight="400" fill="rgb(35, 40, 45)" style="font-size:13px;font-family: 微软雅黑;color:#23282D;font-style:normal;text-align:left;font-weight:400;font-style: normal;"><tspan x="1099.046875" y="248.375"><tspan>时间</tspan></tspan></text></g></g><g id="6379c95f1567"><rect x="986.046875" y="371.90625" rx="1px" ry="1px" width="81" height="21" style="fill: transparent; stroke:none;"></rect><g><text text-anchor="start" align="top" anchor="start" font-size="13px" font-weight="400" fill="rgb(35, 40, 45)" style="font-size:13px;font-family: 微软雅黑;color:#23282D;font-style:normal;text-align:left;font-weight:400;font-style: normal;"><tspan x="994.046875" y="386.90625"><tspan>餐品分类区</tspan></tspan></text></g></g><g id="fc47722a02f2"><rect x="1091.0625" y="258.5625" rx="1px" ry="1px" width="46" height="20" style="fill: transparent; stroke:none;"></rect><g><text text-anchor="start" align="top" anchor="start" font-size="13px" font-weight="400" fill="rgb(35, 40, 45)" style="font-size:13px;font-family: 微软雅黑;color:#23282D;font-style:normal;text-align:left;font-weight:400;font-style: normal;"><tspan x="1099.0625" y="273.5625"><tspan>活动</tspan></tspan></text></g></g><g id="f53d6846575e"><rect x="1091.0625" y="283.75" rx="1px" ry="1px" width="46" height="20" style="fill: transparent; stroke:none;"></rect><g><text text-anchor="start" align="top" anchor="start" font-size="13px" font-weight="400" fill="rgb(35, 40, 45)" style="font-size:13px;font-family: 微软雅黑;color:#23282D;font-style:normal;text-align:left;font-weight:400;font-style: normal;"><tspan x="1099.0625" y="298.75"><tspan>推荐</tspan></tspan></text></g></g><g id="6f09c94366df"><rect x="1091.0625" y="308.9375" rx="1px" ry="1px" width="46" height="20" style="fill: transparent; stroke:none;"></rect><g><text text-anchor="start" align="top" anchor="start" font-size="13px" font-weight="400" fill="rgb(35, 40, 45)" style="font-size:13px;font-family: 微软雅黑;color:#23282D;font-style:normal;text-align:left;font-weight:400;font-style: normal;"><tspan x="1099.0625" y="323.9375"><tspan>人气</tspan></tspan></text></g></g><g id="f200881b7196"><rect x="1091.0625" y="334.125" rx="1px" ry="1px" width="49" height="20" style="fill: transparent; stroke:none;"></rect><g><text text-anchor="start" align="top" anchor="start" font-size="13px" font-weight="400" fill="rgb(35, 40, 45)" style="font-size:13px;font-family: 微软雅黑;color:#23282D;font-style:normal;text-align:left;font-weight:400;font-style: normal;"><tspan x="1099.0625" y="349.125"><tspan>主题1</tspan></tspan></text></g></g><g id="e555c897b346"><rect x="1091.0625" y="359.3125" rx="1px" ry="1px" width="49" height="20" style="fill: transparent; stroke:none;"></rect><g><text text-anchor="start" align="top" anchor="start" font-size="13px" font-weight="400" fill="rgb(35, 40, 45)" style="font-size:13px;font-family: 微软雅黑;color:#23282D;font-style:normal;text-align:left;font-weight:400;font-style: normal;"><tspan x="1099.0625" y="374.3125"><tspan>主题2</tspan></tspan></text></g></g><g id="2b33194db9a2"><rect x="1091.0625" y="384.5" rx="1px" ry="1px" width="46" height="20" style="fill: transparent; stroke:none;"></rect><g><text text-anchor="start" align="top" anchor="start" font-size="13px" font-weight="400" fill="rgb(35, 40, 45)" style="font-size:13px;font-family: 微软雅黑;color:#23282D;font-style:normal;text-align:left;font-weight:400;font-style: normal;"><tspan x="1099.0625" y="399.5"><tspan>蔬菜</tspan></tspan></text></g></g><g id="23747a69fadd"><rect x="1091.0625" y="409.6875" rx="1px" ry="1px" width="46" height="20" style="fill: transparent; stroke:none;"></rect><g><text text-anchor="start" align="top" anchor="start" font-size="13px" font-weight="400" fill="rgb(35, 40, 45)" style="font-size:13px;font-family: 微软雅黑;color:#23282D;font-style:normal;text-align:left;font-weight:400;font-style: normal;"><tspan x="1099.0625" y="424.6875"><tspan>肉类</tspan></tspan></text></g></g><g id="be471b25cd51"><rect x="1091.0625" y="434.875" rx="1px" ry="1px" width="46" height="20" style="fill: transparent; stroke:none;"></rect><g><text text-anchor="start" align="top" anchor="start" font-size="13px" font-weight="400" fill="rgb(35, 40, 45)" style="font-size:13px;font-family: 微软雅黑;color:#23282D;font-style:normal;text-align:left;font-weight:400;font-style: normal;"><tspan x="1099.0625" y="449.875"><tspan>主食</tspan></tspan></text></g></g><g id="472bc6795efc"><rect x="1091.0625" y="460.0625" rx="1px" ry="1px" width="46" height="20" style="fill: transparent; stroke:none;"></rect><g><text text-anchor="start" align="top" anchor="start" font-size="13px" font-weight="400" fill="rgb(35, 40, 45)" style="font-size:13px;font-family: 微软雅黑;color:#23282D;font-style:normal;text-align:left;font-weight:400;font-style: normal;"><tspan x="1099.0625" y="475.0625"><tspan>甜点</tspan></tspan></text></g></g><g id="b83620fc7e97"><rect x="1091.0625" y="485.25" rx="1px" ry="1px" width="46" height="20" style="fill: transparent; stroke:none;"></rect><g><text text-anchor="start" align="top" anchor="start" font-size="13px" font-weight="400" fill="rgb(35, 40, 45)" style="font-size:13px;font-family: 微软雅黑;color:#23282D;font-style:normal;text-align:left;font-weight:400;font-style: normal;"><tspan x="1099.0625" y="500.25"><tspan>饮品</tspan></tspan></text></g></g><g id="4cd42b40666c"><rect x="986.046875" y="560.8125" rx="1px" ry="1px" width="81" height="21" style="fill: transparent; stroke:none;"></rect><g><text text-anchor="start" align="top" anchor="start" font-size="13px" font-weight="400" fill="rgb(35, 40, 45)" style="font-size:13px;font-family: 微软雅黑;color:#23282D;font-style:normal;text-align:left;font-weight:400;font-style: normal;"><tspan x="994.046875" y="575.8125"><tspan>餐品详情区</tspan></tspan></text></g></g><g id="c83588a7b448"><rect x="1091.0625" y="510.4375" rx="1px" ry="1px" width="68" height="20" style="fill: transparent; stroke:none;"></rect><g><text text-anchor="start" align="top" anchor="start" font-size="13px" font-weight="400" fill="rgb(35, 40, 45)" style="font-size:13px;font-family: 微软雅黑;color:#23282D;font-style:normal;text-align:left;font-weight:400;font-style: normal;"><tspan x="1099.0625" y="525.4375"><tspan>餐品图片</tspan></tspan></text></g></g><g id="4555b233169d"><rect x="1091.0625" y="535.625" rx="1px" ry="1px" width="68" height="20" style="fill: transparent; stroke:none;"></rect><g><text text-anchor="start" align="top" anchor="start" font-size="13px" font-weight="400" fill="rgb(35, 40, 45)" style="font-size:13px;font-family: 微软雅黑;color:#23282D;font-style:normal;text-align:left;font-weight:400;font-style: normal;"><tspan x="1099.0625" y="550.625"><tspan>餐品价格</tspan></tspan></text></g></g><g id="2fb6021f2a38"><rect x="1091.0625" y="560.8125" rx="1px" ry="1px" width="68" height="20" style="fill: transparent; stroke:none;"></rect><g><text text-anchor="start" align="top" anchor="start" font-size="13px" font-weight="400" fill="rgb(35, 40, 45)" style="font-size:13px;font-family: 微软雅黑;color:#23282D;font-style:normal;text-align:left;font-weight:400;font-style: normal;"><tspan x="1099.0625" y="575.8125"><tspan>餐品质量</tspan></tspan></text></g></g><g id="f30ac125c352"><rect x="1091.0625" y="586" rx="1px" ry="1px" width="55" height="20" style="fill: transparent; stroke:none;"></rect><g><text text-anchor="start" align="top" anchor="start" font-size="13px" font-weight="400" fill="rgb(35, 40, 45)" style="font-size:13px;font-family: 微软雅黑;color:#23282D;font-style:normal;text-align:left;font-weight:400;font-style: normal;"><tspan x="1099.0625" y="601"><tspan>点餐量</tspan></tspan></text></g></g><g id="9a6a61521fd2"><rect x="1091.0625" y="611.1875" rx="1px" ry="1px" width="85" height="20" style="fill: transparent; stroke:none;"></rect><g><text text-anchor="start" align="top" anchor="start" font-size="13px" font-weight="400" fill="rgb(35, 40, 45)" style="font-size:13px;font-family: 微软雅黑;color:#23282D;font-style:normal;text-align:left;font-weight:400;font-style: normal;"><tspan x="1099.0625" y="626.1875"><tspan>下单/选规格</tspan></tspan></text></g></g><g id="0141de4dc6d8"><rect x="986.046875" y="661.5625" rx="1px" ry="1px" width="55" height="20" style="fill: transparent; stroke:none;"></rect><g><text text-anchor="start" align="top" anchor="start" font-size="13px" font-weight="400" fill="rgb(35, 40, 45)" style="font-size:13px;font-family: 微软雅黑;color:#23282D;font-style:normal;text-align:left;font-weight:400;font-style: normal;"><tspan x="994.046875" y="676.5625"><tspan>购物车</tspan></tspan></text></g></g><g id="f37a0895eacc"><rect x="1065.046875" y="636.375" rx="1px" ry="1px" width="55" height="20" style="fill: transparent; stroke:none;"></rect><g><text text-anchor="start" align="top" anchor="start" font-size="13px" font-weight="400" fill="rgb(35, 40, 45)" style="font-size:13px;font-family: 微软雅黑;color:#23282D;font-style:normal;text-align:left;font-weight:400;font-style: normal;"><tspan x="1073.046875" y="651.375"><tspan>总价格</tspan></tspan></text></g></g><g id="6f36e28f9b9c"><rect x="1065.046875" y="661.5625" rx="1px" ry="1px" width="46" height="20" style="fill: transparent; stroke:none;"></rect><g><text text-anchor="start" align="top" anchor="start" font-size="13px" font-weight="400" fill="rgb(35, 40, 45)" style="font-size:13px;font-family: 微软雅黑;color:#23282D;font-style:normal;text-align:left;font-weight:400;font-style: normal;"><tspan x="1073.046875" y="676.5625"><tspan>总量</tspan></tspan></text></g></g><g id="b29f68a6a12c"><rect x="1065.046875" y="686.75" rx="1px" ry="1px" width="46" height="20" style="fill: transparent; stroke:none;"></rect><g><text text-anchor="start" align="top" anchor="start" font-size="13px" font-weight="400" fill="rgb(35, 40, 45)" style="font-size:13px;font-family: 微软雅黑;color:#23282D;font-style:normal;text-align:left;font-weight:400;font-style: normal;"><tspan x="1073.046875" y="701.75"><tspan>下单</tspan></tspan></text></g></g><g id="1134447d61b8"><rect x="856.03125" y="73.265625" rx="4px" ry="4px" width="90" height="37" style="fill: #ffffff; stroke:#444;stroke-width:1px;"></rect><g><text text-anchor="start" align="top" anchor="start" font-size="16px" font-weight="normal" fill="rgb(35, 40, 45)" style="font-size:16px;font-family: 微软雅黑;color:#23282D;font-style:normal;text-align:left;font-weight:normal;font-style: normal;"><tspan x="877.03125" y="96.265625"><tspan>主界面</tspan></tspan></text></g></g><g id="f147f10428e7"><rect x="970.046875" y="30" rx="1px" ry="1px" width="68" height="20" style="fill: transparent; stroke:none;"></rect><g><text text-anchor="start" align="top" anchor="start" font-size="13px" font-weight="400" fill="rgb(35, 40, 45)" style="font-size:13px;font-family: 微软雅黑;color:#23282D;font-style:normal;text-align:left;font-weight:400;font-style: normal;"><tspan x="978.046875" y="45"><tspan>当季推荐</tspan></tspan></text></g></g><g id="cdc9e8b302b8"><rect x="970.046875" y="55.1875" rx="1px" ry="1px" width="55" height="20" style="fill: transparent; stroke:none;"></rect><g><text text-anchor="start" align="top" anchor="start" font-size="13px" font-weight="400" fill="rgb(35, 40, 45)" style="font-size:13px;font-family: 微软雅黑;color:#23282D;font-style:normal;text-align:left;font-weight:400;font-style: normal;"><tspan x="978.046875" y="70.1875"><tspan>餐桌号</tspan></tspan></text></g></g><g id="2f2297a90626"><rect x="970.046875" y="80.375" rx="1px" ry="1px" width="46" height="20" style="fill: transparent; stroke:none;"></rect><g><text text-anchor="start" align="top" anchor="start" font-size="13px" font-weight="400" fill="rgb(35, 40, 45)" style="font-size:13px;font-family: 微软雅黑;color:#23282D;font-style:normal;text-align:left;font-weight:400;font-style: normal;"><tspan x="978.046875" y="95.375"><tspan>时间</tspan></tspan></text></g></g><g id="c9fe56395238"><rect x="970.046875" y="105.5625" rx="1px" ry="1px" width="72" height="20" style="fill: transparent; stroke:none;"></rect><g><text text-anchor="start" align="top" anchor="start" font-size="13px" font-weight="400" fill="rgb(35, 40, 45)" style="font-size:13px;font-family: 微软雅黑;color:#23282D;font-style:normal;text-align:left;font-weight:400;font-style: normal;"><tspan x="978.046875" y="120.5625"><tspan>登陆/用户</tspan></tspan></text></g></g><g id="98d04ba4a53f"><rect x="970.046875" y="130.75" rx="1px" ry="1px" width="68" height="20" style="fill: transparent; stroke:none;"></rect><g><text text-anchor="start" align="top" anchor="start" font-size="13px" font-weight="400" fill="rgb(35, 40, 45)" style="font-size:13px;font-family: 微软雅黑;color:#23282D;font-style:normal;text-align:left;font-weight:400;font-style: normal;"><tspan x="978.046875" y="145.75"><tspan>开始点单</tspan></tspan></text></g></g><g id="9e9b813103d3"><rect x="121.984375" y="360" rx="1px" ry="1px" width="68" height="20" style="fill: transparent; stroke:none;"></rect><g><text text-anchor="start" align="top" anchor="start" font-size="13px" font-weight="400" fill="rgb(35, 40, 45)" style="font-size:13px;font-family: 微软雅黑;color:#23282D;font-style:normal;text-align:left;font-weight:400;font-style: normal;"><tspan x="129.984375" y="375"><tspan>餐品文本</tspan></tspan></text></g></g><g id="25d5a439624a"><rect x="95.984375" y="385.1875" rx="1px" ry="1px" width="94" height="20" style="fill: transparent; stroke:none;"></rect><g><text text-anchor="start" align="top" anchor="start" font-size="13px" font-weight="400" fill="rgb(35, 40, 45)" style="font-size:13px;font-family: 微软雅黑;color:#23282D;font-style:normal;text-align:left;font-weight:400;font-style: normal;"><tspan x="103.984375" y="400.1875"><tspan>图文快捷方式</tspan></tspan></text></g></g><g id="50c3c11de869"><rect x="144" y="410.375" rx="1px" ry="1px" width="46" height="20" style="fill: transparent; stroke:none;"></rect><g><text text-anchor="start" align="top" anchor="start" font-size="13px" font-weight="400" fill="rgb(35, 40, 45)" style="font-size:13px;font-family: 微软雅黑;color:#23282D;font-style:normal;text-align:left;font-weight:400;font-style: normal;"><tspan x="152" y="425.375"><tspan>数量</tspan></tspan></text></g></g><g id="e298c3ba6a8c"><rect x="144" y="435.5625" rx="1px" ry="1px" width="46" height="20" style="fill: transparent; stroke:none;"></rect><g><text text-anchor="start" align="top" anchor="start" font-size="13px" font-weight="400" fill="rgb(35, 40, 45)" style="font-size:13px;font-family: 微软雅黑;color:#23282D;font-style:normal;text-align:left;font-weight:400;font-style: normal;"><tspan x="152" y="450.5625"><tspan>价格</tspan></tspan></text></g></g><g id="7a6bf809dc5b"><rect x="134.984375" y="460.75" rx="1px" ry="1px" width="55" height="20" style="fill: transparent; stroke:none;"></rect><g><text text-anchor="start" align="top" anchor="start" font-size="13px" font-weight="400" fill="rgb(35, 40, 45)" style="font-size:13px;font-family: 微软雅黑;color:#23282D;font-style:normal;text-align:left;font-weight:400;font-style: normal;"><tspan x="142.984375" y="475.75"><tspan>总价格</tspan></tspan></text></g></g><g id="2a3effb0eb7e"><rect x="134.984375" y="485.9375" rx="1px" ry="1px" width="55" height="20" style="fill: transparent; stroke:none;"></rect><g><text text-anchor="start" align="top" anchor="start" font-size="13px" font-weight="400" fill="rgb(35, 40, 45)" style="font-size:13px;font-family: 微软雅黑;color:#23282D;font-style:normal;text-align:left;font-weight:400;font-style: normal;"><tspan x="142.984375" y="500.9375"><tspan>总质量</tspan></tspan></text></g></g><g id="5263dacb2da9"><rect x="43" y="511.125" rx="1px" ry="1px" width="55" height="20" style="fill: transparent; stroke:none;"></rect><g><text text-anchor="start" align="top" anchor="start" font-size="13px" font-weight="400" fill="rgb(35, 40, 45)" style="font-size:13px;font-family: 微软雅黑;color:#23282D;font-style:normal;text-align:left;font-weight:400;font-style: normal;"><tspan x="51" y="526.125"><tspan>已下单</tspan></tspan></text></g></g><g id="a01de7b1f887"><rect x="30" y="536.3125" rx="1px" ry="1px" width="68" height="20" style="fill: transparent; stroke:none;"></rect><g><text text-anchor="start" align="top" anchor="start" font-size="13px" font-weight="400" fill="rgb(35, 40, 45)" style="font-size:13px;font-family: 微软雅黑;color:#23282D;font-style:normal;text-align:left;font-weight:400;font-style: normal;"><tspan x="38" y="551.3125"><tspan>正在制作</tspan></tspan></text></g></g><g id="7e48a520761a"><rect x="43" y="561.5" rx="1px" ry="1px" width="55" height="20" style="fill: transparent; stroke:none;"></rect><g><text text-anchor="start" align="top" anchor="start" font-size="13px" font-weight="400" fill="rgb(35, 40, 45)" style="font-size:13px;font-family: 微软雅黑;color:#23282D;font-style:normal;text-align:left;font-weight:400;font-style: normal;"><tspan x="51" y="576.5"><tspan>已上菜</tspan></tspan></text></g></g><g id="9e7d8322902c"><rect x="43" y="586.6875" rx="1px" ry="1px" width="55" height="20" style="fill: transparent; stroke:none;"></rect><g><text text-anchor="start" align="top" anchor="start" font-size="13px" font-weight="400" fill="rgb(35, 40, 45)" style="font-size:13px;font-family: 微软雅黑;color:#23282D;font-style:normal;text-align:left;font-weight:400;font-style: normal;"><tspan x="51" y="601.6875"><tspan>已退单</tspan></tspan></text></g></g><g id="d592e5ae37e1"><rect x="122" y="548.90625" rx="1px" ry="1px" width="68" height="20" style="fill: transparent; stroke:none;"></rect><g><text text-anchor="start" align="top" anchor="start" font-size="13px" font-weight="400" fill="rgb(35, 40, 45)" style="font-size:13px;font-family: 微软雅黑;color:#23282D;font-style:normal;text-align:left;font-weight:400;font-style: normal;"><tspan x="130" y="563.90625"><tspan>当前状态</tspan></tspan></text></g></g><g id="57de559a124c"><rect x="214" y="473.34375" rx="1px" ry="1px" width="94" height="21" style="fill: transparent; stroke:none;"></rect><g><text text-anchor="start" align="top" anchor="start" font-size="13px" font-weight="400" fill="rgb(35, 40, 45)" style="font-size:13px;font-family: 微软雅黑;color:#23282D;font-style:normal;text-align:left;font-weight:400;font-style: normal;"><tspan x="222" y="488.34375"><tspan>餐品详情列表</tspan></tspan></text></g></g><g id="b3dab5adb4b8"><rect x="262.015625" y="611.875" rx="1px" ry="1px" width="46" height="20" style="fill: transparent; stroke:none;"></rect><g><text text-anchor="start" align="top" anchor="start" font-size="13px" font-weight="400" fill="rgb(35, 40, 45)" style="font-size:13px;font-family: 微软雅黑;color:#23282D;font-style:normal;text-align:left;font-weight:400;font-style: normal;"><tspan x="270.015625" y="626.875"><tspan>结帐</tspan></tspan></text></g></g><g id="45f71de01e53"><rect x="240.015625" y="637.0625" rx="1px" ry="1px" width="68" height="20" style="fill: transparent; stroke:none;"></rect><g><text text-anchor="start" align="top" anchor="start" font-size="13px" font-weight="400" fill="rgb(35, 40, 45)" style="font-size:13px;font-family: 微软雅黑;color:#23282D;font-style:normal;text-align:left;font-weight:400;font-style: normal;"><tspan x="248.015625" y="652.0625"><tspan>继续点餐</tspan></tspan></text></g></g><g id="3214057c4157"><rect x="332.015625" y="491.421875" rx="4px" ry="4px" width="106" height="37" style="fill: #ffffff; stroke:#444;stroke-width:1px;"></rect><g><text text-anchor="start" align="top" anchor="start" font-size="16px" font-weight="normal" fill="rgb(35, 40, 45)" style="font-size:16px;font-family: 微软雅黑;color:#23282D;font-style:normal;text-align:left;font-weight:normal;font-style: normal;"><tspan x="353.015625" y="514.421875"><tspan>用餐界面</tspan></tspan></text></g></g><g id="4d7517733b73"><rect x="89.984375" y="81" rx="1px" ry="1px" width="68" height="20" style="fill: transparent; stroke:none;"></rect><g><text text-anchor="start" align="top" anchor="start" font-size="13px" font-weight="400" fill="rgb(35, 40, 45)" style="font-size:13px;font-family: 微软雅黑;color:#23282D;font-style:normal;text-align:left;font-weight:400;font-style: normal;"><tspan x="97.984375" y="96"><tspan>餐品文本</tspan></tspan></text></g></g><g id="21bf25753b43"><rect x="63.984375" y="106.1875" rx="1px" ry="1px" width="94" height="20" style="fill: transparent; stroke:none;"></rect><g><text text-anchor="start" align="top" anchor="start" font-size="13px" font-weight="400" fill="rgb(35, 40, 45)" style="font-size:13px;font-family: 微软雅黑;color:#23282D;font-style:normal;text-align:left;font-weight:400;font-style: normal;"><tspan x="71.984375" y="121.1875"><tspan>图文快捷方式</tspan></tspan></text></g></g><g id="524002c2f654"><rect x="112" y="131.375" rx="1px" ry="1px" width="46" height="20" style="fill: transparent; stroke:none;"></rect><g><text text-anchor="start" align="top" anchor="start" font-size="13px" font-weight="400" fill="rgb(35, 40, 45)" style="font-size:13px;font-family: 微软雅黑;color:#23282D;font-style:normal;text-align:left;font-weight:400;font-style: normal;"><tspan x="120" y="146.375"><tspan>数量</tspan></tspan></text></g></g><g id="1a3e326c347e"><rect x="112" y="156.5625" rx="1px" ry="1px" width="46" height="20" style="fill: transparent; stroke:none;"></rect><g><text text-anchor="start" align="top" anchor="start" font-size="13px" font-weight="400" fill="rgb(35, 40, 45)" style="font-size:13px;font-family: 微软雅黑;color:#23282D;font-style:normal;text-align:left;font-weight:400;font-style: normal;"><tspan x="120" y="171.5625"><tspan>价格</tspan></tspan></text></g></g><g id="b57ad159bdf7"><rect x="102.984375" y="181.75" rx="1px" ry="1px" width="55" height="20" style="fill: transparent; stroke:none;"></rect><g><text text-anchor="start" align="top" anchor="start" font-size="13px" font-weight="400" fill="rgb(35, 40, 45)" style="font-size:13px;font-family: 微软雅黑;color:#23282D;font-style:normal;text-align:left;font-weight:400;font-style: normal;"><tspan x="110.984375" y="196.75"><tspan>总价格</tspan></tspan></text></g></g><g id="c3fb853bbc40"><rect x="102.984375" y="206.9375" rx="1px" ry="1px" width="55" height="20" style="fill: transparent; stroke:none;"></rect><g><text text-anchor="start" align="top" anchor="start" font-size="13px" font-weight="400" fill="rgb(35, 40, 45)" style="font-size:13px;font-family: 微软雅黑;color:#23282D;font-style:normal;text-align:left;font-weight:400;font-style: normal;"><tspan x="110.984375" y="221.9375"><tspan>总质量</tspan></tspan></text></g></g><g id="b857223423f8"><rect x="182" y="143.96875" rx="1px" ry="1px" width="94" height="20" style="fill: transparent; stroke:none;"></rect><g><text text-anchor="start" align="top" anchor="start" font-size="13px" font-weight="400" fill="rgb(35, 40, 45)" style="font-size:13px;font-family: 微软雅黑;color:#23282D;font-style:normal;text-align:left;font-weight:400;font-style: normal;"><tspan x="190" y="158.96875"><tspan>餐品详情列表</tspan></tspan></text></g></g><g id="13c3cfba8e3a"><rect x="89.984375" y="232.125" rx="1px" ry="1px" width="68" height="20" style="fill: transparent; stroke:none;"></rect><g><text text-anchor="start" align="top" anchor="start" font-size="13px" font-weight="400" fill="rgb(35, 40, 45)" style="font-size:13px;font-family: 微软雅黑;color:#23282D;font-style:normal;text-align:left;font-weight:400;font-style: normal;"><tspan x="97.984375" y="247.125"><tspan>餐品图片</tspan></tspan></text></g></g><g id="00a5a4fd2875"><rect x="89.984375" y="257.3125" rx="1px" ry="1px" width="68" height="20" style="fill: transparent; stroke:none;"></rect><g><text text-anchor="start" align="top" anchor="start" font-size="13px" font-weight="400" fill="rgb(35, 40, 45)" style="font-size:13px;font-family: 微软雅黑;color:#23282D;font-style:normal;text-align:left;font-weight:400;font-style: normal;"><tspan x="97.984375" y="272.3125"><tspan>餐品名称</tspan></tspan></text></g></g><g id="b76077a7fe57"><rect x="63.984375" y="282.5" rx="1px" ry="1px" width="94" height="20" style="fill: transparent; stroke:none;"></rect><g><text text-anchor="start" align="top" anchor="start" font-size="13px" font-weight="400" fill="rgb(35, 40, 45)" style="font-size:13px;font-family: 微软雅黑;color:#23282D;font-style:normal;text-align:left;font-weight:400;font-style: normal;"><tspan x="71.984375" y="297.5"><tspan>餐品优惠价格</tspan></tspan></text></g></g><g id="88b02dcd33a2"><rect x="182" y="257.3125" rx="1px" ry="1px" width="94" height="20" style="fill: transparent; stroke:none;"></rect><g><text text-anchor="start" align="top" anchor="start" font-size="13px" font-weight="400" fill="rgb(35, 40, 45)" style="font-size:13px;font-family: 微软雅黑;color:#23282D;font-style:normal;text-align:left;font-weight:400;font-style: normal;"><tspan x="190" y="272.3125"><tspan>推荐餐品列表</tspan></tspan></text></g></g><g id="6cd0c11e58cb"><rect x="208" y="307.6875" rx="1px" ry="1px" width="68" height="20" style="fill: transparent; stroke:none;"></rect><g><text text-anchor="start" align="top" anchor="start" font-size="13px" font-weight="400" fill="rgb(35, 40, 45)" style="font-size:13px;font-family: 微软雅黑;color:#23282D;font-style:normal;text-align:left;font-weight:400;font-style: normal;"><tspan x="216" y="322.6875"><tspan>确认界面</tspan></tspan></text></g></g><g id="4bec7a00707d"><rect x="300.015625" y="187.234375" rx="4px" ry="4px" width="138" height="37" style="fill: #ffffff; stroke:#444;stroke-width:1px;"></rect><g><text text-anchor="start" align="top" anchor="start" font-size="16px" font-weight="normal" fill="rgb(35, 40, 45)" style="font-size:16px;font-family: 微软雅黑;color:#23282D;font-style:normal;text-align:left;font-weight:normal;font-style: normal;"><tspan x="321.015625" y="210.234375"><tspan>订单确认界面</tspan></tspan></text></g></g><g transform="translate(856.03125, 183)" id="sdjakdjak0"><g id="subline_13e459d6f1e9" transform="translate(0.5,-0.5)"><path id="line_4bc21769304a" d="M 106 263 L 124 263 L 124 51 A 4 4 0 0 1 128 47 L 211.015625 47" p="13e459d6f1e9" stroke="#8A8A8A" fill="none" stroke-linecap="square" stroke-width="1"></path><path id="line_fe643ae9ace2" d="M 211.015625 47 L 230 47 L 230 26 A 4 4 0 0 1 234 22 L 290.015625 22" p="4bc21769304a" stroke="#8A8A8A" fill="none" stroke-linecap="square" stroke-width="1"></path><path id="line_958af13cc92f" d="M 211.015625 47 L 230 47 L 230 47 L 307.015625 47" p="4bc21769304a" stroke="#8A8A8A" fill="none" stroke-linecap="square" stroke-width="1"></path><path id="line_0bfd0ee96805" d="M 211.015625 47 L 230 47 L 230 68 A 4 4 0 0 0 234 72 L 281.015625 72" p="4bc21769304a" stroke="#8A8A8A" fill="none" stroke-linecap="square" stroke-width="1"></path><path id="line_6379c95f1567" d="M 106 263 L 124 263 L 124 215 A 4 4 0 0 1 128 211 L 211.015625 211" p="13e459d6f1e9" stroke="#8A8A8A" fill="none" stroke-linecap="square" stroke-width="1"></path><path id="line_fc47722a02f2" d="M 211.015625 211 L 230 211 L 230 101 A 4 4 0 0 1 234 97 L 281.03125 97" p="6379c95f1567" stroke="#8A8A8A" fill="none" stroke-linecap="square" stroke-width="1"></path><path id="line_f53d6846575e" d="M 211.015625 211 L 230 211 L 230 126 A 4 4 0 0 1 234 122 L 281.03125 122" p="6379c95f1567" stroke="#8A8A8A" fill="none" stroke-linecap="square" stroke-width="1"></path><path id="line_6f09c94366df" d="M 211.015625 211 L 230 211 L 230 151 A 4 4 0 0 1 234 147 L 281.03125 147" p="6379c95f1567" stroke="#8A8A8A" fill="none" stroke-linecap="square" stroke-width="1"></path><path id="line_f200881b7196" d="M 211.015625 211 L 230 211 L 230 177 A 4 4 0 0 1 234 173 L 284.03125 173" p="6379c95f1567" stroke="#8A8A8A" fill="none" stroke-linecap="square" stroke-width="1"></path><path id="line_e555c897b346" d="M 211.015625 211 L 230 211 L 230 198 L 284.03125 198" p="6379c95f1567" stroke="#8A8A8A" fill="none" stroke-linecap="square" stroke-width="1"></path><path id="line_2b33194db9a2" d="M 211.015625 211 L 230 211 L 230 223 L 281.03125 223" p="6379c95f1567" stroke="#8A8A8A" fill="none" stroke-linecap="square" stroke-width="1"></path><path id="line_23747a69fadd" d="M 211.015625 211 L 230 211 L 230 244 A 4 4 0 0 0 234 248 L 281.03125 248" p="6379c95f1567" stroke="#8A8A8A" fill="none" stroke-linecap="square" stroke-width="1"></path><path id="line_be471b25cd51" d="M 211.015625 211 L 230 211 L 230 269 A 4 4 0 0 0 234 273 L 281.03125 273" p="6379c95f1567" stroke="#8A8A8A" fill="none" stroke-linecap="square" stroke-width="1"></path><path id="line_472bc6795efc" d="M 211.015625 211 L 230 211 L 230 295 A 4 4 0 0 0 234 299 L 281.03125 299" p="6379c95f1567" stroke="#8A8A8A" fill="none" stroke-linecap="square" stroke-width="1"></path><path id="line_b83620fc7e97" d="M 211.015625 211 L 230 211 L 230 320 A 4 4 0 0 0 234 324 L 281.03125 324" p="6379c95f1567" stroke="#8A8A8A" fill="none" stroke-linecap="square" stroke-width="1"></path><path id="line_4cd42b40666c" d="M 106 263 L 124 263 L 124 396 A 4 4 0 0 0 128 400 L 211.015625 400" p="13e459d6f1e9" stroke="#8A8A8A" fill="none" stroke-linecap="square" stroke-width="1"></path><path id="line_c83588a7b448" d="M 211.015625 400 L 230 400 L 230 353 A 4 4 0 0 1 234 349 L 303.03125 349" p="4cd42b40666c" stroke="#8A8A8A" fill="none" stroke-linecap="square" stroke-width="1"></path><path id="line_4555b233169d" d="M 211.015625 400 L 230 400 L 230 378 A 4 4 0 0 1 234 374 L 303.03125 374" p="4cd42b40666c" stroke="#8A8A8A" fill="none" stroke-linecap="square" stroke-width="1"></path><path id="line_2fb6021f2a38" d="M 211.015625 400 L 230 400 L 230 400 L 303.03125 400" p="4cd42b40666c" stroke="#8A8A8A" fill="none" stroke-linecap="square" stroke-width="1"></path><path id="line_f30ac125c352" d="M 211.015625 400 L 230 400 L 230 421 A 4 4 0 0 0 234 425 L 290.03125 425" p="4cd42b40666c" stroke="#8A8A8A" fill="none" stroke-linecap="square" stroke-width="1"></path><path id="line_9a6a61521fd2" d="M 211.015625 400 L 230 400 L 230 446 A 4 4 0 0 0 234 450 L 320.03125 450" p="4cd42b40666c" stroke="#8A8A8A" fill="none" stroke-linecap="square" stroke-width="1"></path><path id="line_0141de4dc6d8" d="M 106 263 L 124 263 L 124 496 A 4 4 0 0 0 128 500 L 185.015625 500" p="13e459d6f1e9" stroke="#8A8A8A" fill="none" stroke-linecap="square" stroke-width="1"></path><path id="line_f37a0895eacc" d="M 185.015625 500 L 204 500 L 204 479 A 4 4 0 0 1 208 475 L 264.015625 475" p="0141de4dc6d8" stroke="#8A8A8A" fill="none" stroke-linecap="square" stroke-width="1"></path><path id="line_6f36e28f9b9c" d="M 185.015625 500 L 204 500 L 204 500 L 255.015625 500" p="0141de4dc6d8" stroke="#8A8A8A" fill="none" stroke-linecap="square" stroke-width="1"></path><path id="line_b29f68a6a12c" d="M 185.015625 500 L 204 500 L 204 521 A 4 4 0 0 0 208 525 L 255.015625 525" p="0141de4dc6d8" stroke="#8A8A8A" fill="none" stroke-linecap="square" stroke-width="1"></path></g><g transform="translate(0.5,0)"></g><g class="svg-summary-con" transform="translate(0.5,0.5)"></g><g class="svg-boundary-con" transform="translate(0.5,0.5)"></g></g><g transform="translate(856.03125, 30)" id="sdjakdjak1"><g id="subline_1134447d61b8" transform="translate(0.5,-0.5)"><path id="line_f147f10428e7" d="M 90 62 L 108 62 L 108 26 A 4 4 0 0 1 112 22 L 182.015625 22" p="1134447d61b8" stroke="#8A8A8A" fill="none" stroke-linecap="square" stroke-width="1"></path><path id="line_cdc9e8b302b8" d="M 90 62 L 108 62 L 108 51 A 4 4 0 0 1 112 47 L 169.015625 47" p="1134447d61b8" stroke="#8A8A8A" fill="none" stroke-linecap="square" stroke-width="1"></path><path id="line_2f2297a90626" d="M 90 62 L 108 62 L 108 73 L 160.015625 73" p="1134447d61b8" stroke="#8A8A8A" fill="none" stroke-linecap="square" stroke-width="1"></path><path id="line_c9fe56395238" d="M 90 62 L 108 62 L 108 97 L 186.015625 97" p="1134447d61b8" stroke="#8A8A8A" fill="none" stroke-linecap="square" stroke-width="1"></path><path id="line_98d04ba4a53f" d="M 90 62 L 108 62 L 108 118 A 4 4 0 0 0 112 122 L 182.015625 122" p="1134447d61b8" stroke="#8A8A8A" fill="none" stroke-linecap="square" stroke-width="1"></path></g><g transform="translate(0.5,0)"></g><g class="svg-summary-con" transform="translate(0.5,0.5)"></g><g class="svg-boundary-con" transform="translate(0.5,0.5)"></g></g><g transform="translate(30, 360)" id="sdjakdjak2"><g id="subline_3214057c4157" transform="translate(0.5,-0.5)"><path id="line_57de559a124c" d="M 302.015625 149 L 285 149 L 285 139 A 4 4 0 0 0 281 135 L 184 135" p="3214057c4157" stroke="#8A8A8A" fill="none" stroke-linecap="square" stroke-width="1"></path><path id="line_9e9b813103d3" d="M 184 135 L 166 135 L 166 26 A 4 4 0 0 0 162 22 L 91.984375 22" p="57de559a124c" stroke="#8A8A8A" fill="none" stroke-linecap="square" stroke-width="1"></path><path id="line_25d5a439624a" d="M 184 135 L 166 135 L 166 51 A 4 4 0 0 0 162 47 L 65.984375 47" p="57de559a124c" stroke="#8A8A8A" fill="none" stroke-linecap="square" stroke-width="1"></path><path id="line_50c3c11de869" d="M 184 135 L 166 135 L 166 76 A 4 4 0 0 0 162 72 L 114 72" p="57de559a124c" stroke="#8A8A8A" fill="none" stroke-linecap="square" stroke-width="1"></path><path id="line_e298c3ba6a8c" d="M 184 135 L 166 135 L 166 101 A 4 4 0 0 0 162 97 L 114 97" p="57de559a124c" stroke="#8A8A8A" fill="none" stroke-linecap="square" stroke-width="1"></path><path id="line_7a6bf809dc5b" d="M 184 135 L 166 135 L 166 122 L 104.984375 122" p="57de559a124c" stroke="#8A8A8A" fill="none" stroke-linecap="square" stroke-width="1"></path><path id="line_2a3effb0eb7e" d="M 184 135 L 166 135 L 166 147 L 104.984375 147" p="57de559a124c" stroke="#8A8A8A" fill="none" stroke-linecap="square" stroke-width="1"></path><path id="line_d592e5ae37e1" d="M 184 135 L 166 135 L 166 206 A 4 4 0 0 1 162 210 L 92 210" p="57de559a124c" stroke="#8A8A8A" fill="none" stroke-linecap="square" stroke-width="1"></path><path id="line_5263dacb2da9" d="M 92 210 L 74 210 L 74 177 A 4 4 0 0 0 70 173 L 13 173" p="d592e5ae37e1" stroke="#8A8A8A" fill="none" stroke-linecap="square" stroke-width="1"></path><path id="line_a01de7b1f887" d="M 92 210 L 74 210 L 74 198 L 0 198" p="d592e5ae37e1" stroke="#8A8A8A" fill="none" stroke-linecap="square" stroke-width="1"></path><path id="line_7e48a520761a" d="M 92 210 L 74 210 L 74 223 L 13 223" p="d592e5ae37e1" stroke="#8A8A8A" fill="none" stroke-linecap="square" stroke-width="1"></path><path id="line_9e7d8322902c" d="M 92 210 L 74 210 L 74 244 A 4 4 0 0 1 70 248 L 13 248" p="d592e5ae37e1" stroke="#8A8A8A" fill="none" stroke-linecap="square" stroke-width="1"></path><path id="line_b3dab5adb4b8" d="M 302.015625 149 L 285 149 L 285 269 A 4 4 0 0 1 281 273 L 232.015625 273" p="3214057c4157" stroke="#8A8A8A" fill="none" stroke-linecap="square" stroke-width="1"></path><path id="line_45f71de01e53" d="M 302.015625 149 L 285 149 L 285 295 A 4 4 0 0 1 281 299 L 210.015625 299" p="3214057c4157" stroke="#8A8A8A" fill="none" stroke-linecap="square" stroke-width="1"></path></g><g transform="translate(0.5,0)"></g><g class="svg-summary-con" transform="translate(0.5,0.5)"></g><g class="svg-boundary-con" transform="translate(0.5,0.5)"></g></g><g transform="translate(63.984375, 81)" id="sdjakdjak3"><g id="subline_4bec7a00707d" transform="translate(0.5,-0.5)"><path id="line_b857223423f8" d="M 236.03125 124 L 219 124 L 219 88 A 4 4 0 0 0 215 84 L 118.015625 84" p="4bec7a00707d" stroke="#8A8A8A" fill="none" stroke-linecap="square" stroke-width="1"></path><path id="line_4d7517733b73" d="M 118.015625 84 L 101 84 L 101 26 A 4 4 0 0 0 97 22 L 26 22" p="b857223423f8" stroke="#8A8A8A" fill="none" stroke-linecap="square" stroke-width="1"></path><path id="line_21bf25753b43" d="M 118.015625 84 L 101 84 L 101 51 A 4 4 0 0 0 97 47 L 0 47" p="b857223423f8" stroke="#8A8A8A" fill="none" stroke-linecap="square" stroke-width="1"></path><path id="line_524002c2f654" d="M 118.015625 84 L 101 84 L 101 72 L 48.015625 72" p="b857223423f8" stroke="#8A8A8A" fill="none" stroke-linecap="square" stroke-width="1"></path><path id="line_1a3e326c347e" d="M 118.015625 84 L 101 84 L 101 97 L 48.015625 97" p="b857223423f8" stroke="#8A8A8A" fill="none" stroke-linecap="square" stroke-width="1"></path><path id="line_b57ad159bdf7" d="M 118.015625 84 L 101 84 L 101 118 A 4 4 0 0 1 97 122 L 39 122" p="b857223423f8" stroke="#8A8A8A" fill="none" stroke-linecap="square" stroke-width="1"></path><path id="line_c3fb853bbc40" d="M 118.015625 84 L 101 84 L 101 143 A 4 4 0 0 1 97 147 L 39 147" p="b857223423f8" stroke="#8A8A8A" fill="none" stroke-linecap="square" stroke-width="1"></path><path id="line_88b02dcd33a2" d="M 236.03125 124 L 219 124 L 219 194 A 4 4 0 0 1 215 198 L 118.015625 198" p="4bec7a00707d" stroke="#8A8A8A" fill="none" stroke-linecap="square" stroke-width="1"></path><path id="line_13c3cfba8e3a" d="M 118.015625 198 L 101 198 L 101 177 A 4 4 0 0 0 97 173 L 26 173" p="88b02dcd33a2" stroke="#8A8A8A" fill="none" stroke-linecap="square" stroke-width="1"></path><path id="line_00a5a4fd2875" d="M 118.015625 198 L 101 198 L 101 198 L 26 198" p="88b02dcd33a2" stroke="#8A8A8A" fill="none" stroke-linecap="square" stroke-width="1"></path><path id="line_b76077a7fe57" d="M 118.015625 198 L 101 198 L 101 219 A 4 4 0 0 1 97 223 L 0 223" p="88b02dcd33a2" stroke="#8A8A8A" fill="none" stroke-linecap="square" stroke-width="1"></path><path id="line_6cd0c11e58cb" d="M 236.03125 124 L 219 124 L 219 244 A 4 4 0 0 1 215 248 L 144.015625 248" p="4bec7a00707d" stroke="#8A8A8A" fill="none" stroke-linecap="square" stroke-width="1"></path></g><g transform="translate(0.5,0)"></g><g class="svg-summary-con" transform="translate(0.5,0.5)"></g><g class="svg-boundary-con" transform="translate(0.5,0.5)"></g></g><g transform="translate(488.03125, 340)" id="sdjakdjak4"><g id="subline_root" transform="translate(0.5,-0.5)"></g><g transform="translate(0.5,0)"></g><g class="svg-summary-con" transform="translate(0.5,0.5)"></g><g class="svg-boundary-con" transform="translate(0.5,0.5)"></g></g><g id="root"><rect x="488.03125" y="340" rx="6px" ry="6px" width="318" height="59" style="fill: #50C28B; stroke:#50C28B;stroke-width:2px;"></rect><g><text text-anchor="start" align="top" anchor="start" font-size="25px" font-weight="normal" fill="rgb(255, 255, 255)" style="font-size:25px;font-family: 微软雅黑;color:#fff;font-style:normal;text-align:left;font-weight:normal;font-style: normal;"><tspan x="522.03125" y="377"><tspan>人造肉点餐信息结构图</tspan></tspan></text></g></g></svg>
