<svg id="SvgjsSvg1474" width="877" height="602" xmlns="http://www.w3.org/2000/svg" version="1.1" xmlns:xlink="http://www.w3.org/1999/xlink" xmlns:svgjs="http://svgjs.com/svgjs"><defs id="SvgjsDefs1475"><marker id="SvgjsMarker1514" markerWidth="14" markerHeight="10" refX="10" refY="5" viewBox="0 0 14 10" orient="auto" markerUnits="userSpaceOnUse" stroke-dasharray="0,0"><path id="SvgjsPath1515" d="M0,0 L14,5 L0,10 L0,0" fill="#323232" stroke="#323232" stroke-width="1"></path></marker><marker id="SvgjsMarker1534" markerWidth="14" markerHeight="10" refX="10" refY="5" viewBox="0 0 14 10" orient="auto" markerUnits="userSpaceOnUse" stroke-dasharray="0,0"><path id="SvgjsPath1535" d="M0,0 L14,5 L0,10 L0,0" fill="#323232" stroke="#323232" stroke-width="1"></path></marker><marker id="SvgjsMarker1542" markerWidth="14" markerHeight="10" refX="10" refY="5" viewBox="0 0 14 10" orient="auto" markerUnits="userSpaceOnUse" stroke-dasharray="0,0"><path id="SvgjsPath1543" d="M0,0 L14,5 L0,10 L0,0" fill="#323232" stroke="#323232" stroke-width="1"></path></marker><marker id="SvgjsMarker1562" markerWidth="14" markerHeight="10" refX="10" refY="5" viewBox="0 0 14 10" orient="auto" markerUnits="userSpaceOnUse" stroke-dasharray="0,0"><path id="SvgjsPath1563" d="M0,0 L14,5 L0,10 L0,0" fill="#323232" stroke="#323232" stroke-width="1"></path></marker><marker id="SvgjsMarker1582" markerWidth="14" markerHeight="10" refX="10" refY="5" viewBox="0 0 14 10" orient="auto" markerUnits="userSpaceOnUse" stroke-dasharray="0,0"><path id="SvgjsPath1583" d="M0,0 L14,5 L0,10 L0,0" fill="#323232" stroke="#323232" stroke-width="1"></path></marker><marker id="SvgjsMarker1590" markerWidth="14" markerHeight="10" refX="10" refY="5" viewBox="0 0 14 10" orient="auto" markerUnits="userSpaceOnUse" stroke-dasharray="0,0"><path id="SvgjsPath1591" d="M0,0 L14,5 L0,10 L0,0" fill="#323232" stroke="#323232" stroke-width="1"></path></marker><marker id="SvgjsMarker1610" markerWidth="14" markerHeight="10" refX="10" refY="5" viewBox="0 0 14 10" orient="auto" markerUnits="userSpaceOnUse" stroke-dasharray="0,0"><path id="SvgjsPath1611" d="M0,0 L14,5 L0,10 L0,0" fill="#323232" stroke="#323232" stroke-width="1"></path></marker><marker id="SvgjsMarker1618" markerWidth="14" markerHeight="10" refX="10" refY="5" viewBox="0 0 14 10" orient="auto" markerUnits="userSpaceOnUse" stroke-dasharray="0,0"><path id="SvgjsPath1619" d="M0,0 L14,5 L0,10 L0,0" fill="#323232" stroke="#323232" stroke-width="1"></path></marker><marker id="SvgjsMarker1626" markerWidth="14" markerHeight="10" refX="10" refY="5" viewBox="0 0 14 10" orient="auto" markerUnits="userSpaceOnUse" stroke-dasharray="0,0"><path id="SvgjsPath1627" d="M0,0 L14,5 L0,10 L0,0" fill="#323232" stroke="#323232" stroke-width="1"></path></marker><marker id="SvgjsMarker1640" markerWidth="14" markerHeight="10" refX="10" refY="5" viewBox="0 0 14 10" orient="auto" markerUnits="userSpaceOnUse" stroke-dasharray="0,0"><path id="SvgjsPath1641" d="M0,0 L14,5 L0,10 L0,0" fill="#323232" stroke="#323232" stroke-width="1"></path></marker><marker id="SvgjsMarker1660" markerWidth="14" markerHeight="10" refX="10" refY="5" viewBox="0 0 14 10" orient="auto" markerUnits="userSpaceOnUse" stroke-dasharray="0,0"><path id="SvgjsPath1661" d="M0,0 L14,5 L0,10 L0,0" fill="#323232" stroke="#323232" stroke-width="1"></path></marker><marker id="SvgjsMarker1668" markerWidth="14" markerHeight="10" refX="10" refY="5" viewBox="0 0 14 10" orient="auto" markerUnits="userSpaceOnUse" stroke-dasharray="0,0"><path id="SvgjsPath1669" d="M0,0 L14,5 L0,10 L0,0" fill="#323232" stroke="#323232" stroke-width="1"></path></marker><marker id="SvgjsMarker1676" markerWidth="14" markerHeight="10" refX="10" refY="5" viewBox="0 0 14 10" orient="auto" markerUnits="userSpaceOnUse" stroke-dasharray="0,0"><path id="SvgjsPath1677" d="M0,0 L14,5 L0,10 L0,0" fill="#323232" stroke="#323232" stroke-width="1"></path></marker><marker id="SvgjsMarker1684" markerWidth="14" markerHeight="10" refX="10" refY="5" viewBox="0 0 14 10" orient="auto" markerUnits="userSpaceOnUse" stroke-dasharray="0,0"><path id="SvgjsPath1685" d="M0,0 L14,5 L0,10 L0,0" fill="#323232" stroke="#323232" stroke-width="1"></path></marker><marker id="SvgjsMarker1692" markerWidth="14" markerHeight="10" refX="10" refY="5" viewBox="0 0 14 10" orient="auto" markerUnits="userSpaceOnUse" stroke-dasharray="0,0"><path id="SvgjsPath1693" d="M0,0 L14,5 L0,10 L0,0" fill="#323232" stroke="#323232" stroke-width="1"></path></marker><marker id="SvgjsMarker1700" markerWidth="14" markerHeight="10" refX="10" refY="5" viewBox="0 0 14 10" orient="auto" markerUnits="userSpaceOnUse" stroke-dasharray="0,0"><path id="SvgjsPath1701" d="M0,0 L14,5 L0,10 L0,0" fill="#323232" stroke="#323232" stroke-width="1"></path></marker><marker id="SvgjsMarker1710" markerWidth="14" markerHeight="10" refX="10" refY="5" viewBox="0 0 14 10" orient="auto" markerUnits="userSpaceOnUse" stroke-dasharray="0,0"><path id="SvgjsPath1711" d="M0,0 L14,5 L0,10 L0,0" fill="#323232" stroke="#323232" stroke-width="1"></path></marker><marker id="SvgjsMarker1718" markerWidth="14" markerHeight="10" refX="10" refY="5" viewBox="0 0 14 10" orient="auto" markerUnits="userSpaceOnUse" stroke-dasharray="0,0"><path id="SvgjsPath1719" d="M0,0 L14,5 L0,10 L0,0" fill="#323232" stroke="#323232" stroke-width="1"></path></marker></defs><g id="SvgjsG1476" transform="translate(403,273.5)"><path id="SvgjsPath1477" d="M 0 4Q 0 0 4 0L 259 0Q 263 0 263 4L 263 149Q 263 153 259 153L 4 153Q 0 153 0 149Z" stroke-dasharray="3,4" stroke="rgba(50,50,50,1)" stroke-width="2" fill-opacity="1" fill="#ffffff"></path><g id="SvgjsG1478"><text id="SvgjsText1479" font-family="微软雅黑" text-anchor="middle" font-size="13px" width="243px" fill="#323232" font-weight="400" align="middle" lineHeight="125%" anchor="middle" family="微软雅黑" size="13px" weight="400" font-style="" opacity="1" y="65.375" transform="rotate(0)"></text></g></g><g id="SvgjsG1480" transform="translate(403,123.5)"><path id="SvgjsPath1481" d="M 0 4Q 0 0 4 0L 445 0Q 449 0 449 4L 449 146Q 449 150 445 150L 4 150Q 0 150 0 146Z" stroke-dasharray="3,4" stroke="rgba(50,50,50,1)" stroke-width="2" fill-opacity="1" fill="#ffffff"></path><g id="SvgjsG1482"><text id="SvgjsText1483" font-family="微软雅黑" text-anchor="middle" font-size="13px" width="429px" fill="#323232" font-weight="400" align="middle" lineHeight="125%" anchor="middle" family="微软雅黑" size="13px" weight="400" font-style="" opacity="1" y="63.875" transform="rotate(0)"></text></g></g><g id="SvgjsG1484" transform="translate(25,25.5)"><path id="SvgjsPath1485" d="M 0 4Q 0 0 4 0L 602 0Q 606 0 606 4L 606 94Q 606 98 602 98L 4 98Q 0 98 0 94Z" stroke-dasharray="3,4" stroke="rgba(50,50,50,1)" stroke-width="2" fill-opacity="1" fill="#ffffff"></path><g id="SvgjsG1486"><text id="SvgjsText1487" font-family="微软雅黑" text-anchor="middle" font-size="13px" width="586px" fill="#323232" font-weight="400" align="middle" lineHeight="125%" anchor="middle" family="微软雅黑" size="13px" weight="400" font-style="" opacity="1" y="37.875" transform="rotate(0)"></text></g></g><g id="SvgjsG1488" transform="translate(25,123.5)"><path id="SvgjsPath1489" d="M 0 4Q 0 0 4 0L 259 0Q 263 0 263 4L 263 149Q 263 153 259 153L 4 153Q 0 153 0 149Z" stroke-dasharray="3,4" stroke="rgba(50,50,50,1)" stroke-width="2" fill-opacity="1" fill="#ffffff"></path><g id="SvgjsG1490"><text id="SvgjsText1491" font-family="微软雅黑" text-anchor="middle" font-size="13px" width="243px" fill="#323232" font-weight="400" align="middle" lineHeight="125%" anchor="middle" family="微软雅黑" size="13px" weight="400" font-style="" opacity="1" y="65.375" transform="rotate(0)"></text></g></g><g id="SvgjsG1492" transform="translate(25,273.5)"><path id="SvgjsPath1493" d="M 0 4Q 0 0 4 0L 259 0Q 263 0 263 4L 263 149Q 263 153 259 153L 4 153Q 0 153 0 149Z" stroke-dasharray="3,4" stroke="rgba(50,50,50,1)" stroke-width="2" fill-opacity="1" fill="#ffffff"></path><g id="SvgjsG1494"><text id="SvgjsText1495" font-family="微软雅黑" text-anchor="middle" font-size="13px" width="243px" fill="#323232" font-weight="400" align="middle" lineHeight="125%" anchor="middle" family="微软雅黑" size="13px" weight="400" font-style="" opacity="1" y="65.375" transform="rotate(0)"></text></g></g><g id="SvgjsG1496" transform="translate(25,424)"><path id="SvgjsPath1497" d="M 0 4Q 0 0 4 0L 259 0Q 263 0 263 4L 263 149Q 263 153 259 153L 4 153Q 0 153 0 149Z" stroke-dasharray="3,4" stroke="rgba(50,50,50,1)" stroke-width="2" fill-opacity="1" fill="#ffffff"></path><g id="SvgjsG1498"><text id="SvgjsText1499" font-family="微软雅黑" text-anchor="middle" font-size="13px" width="243px" fill="#323232" font-weight="400" align="middle" lineHeight="125%" anchor="middle" family="微软雅黑" size="13px" weight="400" font-style="" opacity="1" y="65.375" transform="rotate(0)"></text></g></g><g id="SvgjsG1500" transform="translate(70,527)"><path id="SvgjsPath1501" d="M 0 0L 173 0L 173 41L 0 41Z" stroke="rgba(50,50,50,1)" stroke-width="2" fill-opacity="1" fill="#ffffff"></path><g id="SvgjsG1502"><text id="SvgjsText1503" font-family="微软雅黑" text-anchor="middle" font-size="13px" width="153px" fill="#323232" font-weight="400" align="middle" lineHeight="125%" anchor="middle" family="微软雅黑" size="13px" weight="400" font-style="" opacity="1" y="9.375" transform="rotate(0)"><tspan id="SvgjsTspan1504" dy="16" x="86.5"><tspan id="SvgjsTspan1505" style="text-decoration:;">应用程序</tspan></tspan></text></g></g><g id="SvgjsG1506" transform="translate(436,527)"><path id="SvgjsPath1507" d="M 0 0L 173 0L 173 41L 0 41Z" stroke="rgba(50,50,50,1)" stroke-width="2" fill-opacity="1" fill="#ffffff"></path><g id="SvgjsG1508"><text id="SvgjsText1509" font-family="微软雅黑" text-anchor="middle" font-size="13px" width="153px" fill="#323232" font-weight="400" align="middle" lineHeight="125%" anchor="middle" family="微软雅黑" size="13px" weight="400" font-style="" opacity="1" y="9.375" transform="rotate(0)"><tspan id="SvgjsTspan1510" dy="16" x="86.5"><tspan id="SvgjsTspan1511" style="text-decoration:;">数据存储</tspan></tspan></text></g></g><g id="SvgjsG1512"><path id="SvgjsPath1513" d="M244 547.5L339.5 547.5L339.5 547.5L432.4 547.5" stroke-dasharray="10,5,3,5" stroke="#323232" stroke-width="2" fill="none" marker-end="url(#SvgjsMarker1514)"></path><rect id="SvgjsRect1516" width="52" height="16" x="312.2" y="539.5" fill="#ffffff"></rect><text id="SvgjsText1517" font-family="微软雅黑" text-anchor="middle" font-size="13px" width="52px" fill="#323232" font-weight="400" align="top" lineHeight="16px" anchor="middle" family="微软雅黑" size="13px" weight="400" font-style="" opacity="1" y="536.875" transform="rotate(0)"><tspan id="SvgjsTspan1518" dy="16" x="338.2"><tspan id="SvgjsTspan1519" style="text-decoration:;">数据请求</tspan></tspan></text></g><g id="SvgjsG1520" transform="translate(70,448)"><path id="SvgjsPath1521" d="M 0 0L 173 0L 173 41L 0 41Z" stroke="rgba(50,50,50,1)" stroke-width="2" fill-opacity="1" fill="#ffffff"></path><g id="SvgjsG1522"><text id="SvgjsText1523" font-family="微软雅黑" text-anchor="middle" font-size="13px" width="153px" fill="#323232" font-weight="400" align="middle" lineHeight="125%" anchor="middle" family="微软雅黑" size="13px" weight="400" font-style="" opacity="1" y="9.375" transform="rotate(0)"><tspan id="SvgjsTspan1524" dy="16" x="86.5"><tspan id="SvgjsTspan1525" style="text-decoration:;">操作系统抽象文件</tspan></tspan></text></g></g><g id="SvgjsG1526" transform="translate(70,369)"><path id="SvgjsPath1527" d="M 0 0L 173 0L 173 41L 0 41Z" stroke="rgba(50,50,50,1)" stroke-width="2" fill-opacity="1" fill="#ffffff"></path><g id="SvgjsG1528"><text id="SvgjsText1529" font-family="微软雅黑" text-anchor="middle" font-size="13px" width="153px" fill="#323232" font-weight="400" align="middle" lineHeight="125%" anchor="middle" family="微软雅黑" size="13px" weight="400" font-style="" opacity="1" y="9.375" transform="rotate(0)"><tspan id="SvgjsTspan1530" dy="16" x="86.5"><tspan id="SvgjsTspan1531" style="text-decoration:;">底层串口通信协议</tspan></tspan></text></g></g><g id="SvgjsG1532"><path id="SvgjsPath1533" d="M156.5 526L156.5 508L156.5 508L156.5 492.6" stroke="#323232" stroke-width="2" fill="none" marker-end="url(#SvgjsMarker1534)"></path><rect id="SvgjsRect1536" width="52" height="16" x="130.5" y="501.3" fill="#ffffff"></rect><text id="SvgjsText1537" font-family="微软雅黑" text-anchor="middle" font-size="13px" width="52px" fill="#323232" font-weight="400" align="top" lineHeight="16px" anchor="middle" family="微软雅黑" size="13px" weight="400" font-style="" opacity="1" y="498.675" transform="rotate(0)"><tspan id="SvgjsTspan1538" dy="16" x="156.5"><tspan id="SvgjsTspan1539" style="text-decoration:;">文件读写</tspan></tspan></text></g><g id="SvgjsG1540"><path id="SvgjsPath1541" d="M156.5 447L156.5 429L156.5 429L156.5 413.6" stroke="#323232" stroke-width="2" fill="none" marker-end="url(#SvgjsMarker1542)"></path><rect id="SvgjsRect1544" width="78" height="16" x="117.5" y="422.30000000000007" fill="#ffffff"></rect><text id="SvgjsText1545" font-family="微软雅黑" text-anchor="middle" font-size="13px" width="78px" fill="#323232" font-weight="400" align="top" lineHeight="16px" anchor="middle" family="微软雅黑" size="13px" weight="400" font-style="" opacity="1" y="419.67500000000007" transform="rotate(0)"><tspan id="SvgjsTspan1546" dy="16" x="156.5"><tspan id="SvgjsTspan1547" style="text-decoration:;">操作系统驱动</tspan></tspan></text></g><g id="SvgjsG1548" transform="translate(70,290)"><path id="SvgjsPath1549" d="M 13.666666666666666 0L 159.33333333333334 0C 177.55555555555554 0 177.55555555555554 41 159.33333333333334 41L 13.666666666666666 41C -4.555555555555555 41 -4.555555555555555 0 13.666666666666666 0Z" stroke="rgba(50,50,50,1)" stroke-width="2" fill-opacity="1" fill="#ffffff"></path><g id="SvgjsG1550"><text id="SvgjsText1551" font-family="微软雅黑" text-anchor="middle" font-size="13px" width="153px" fill="#323232" font-weight="400" align="middle" lineHeight="125%" anchor="middle" family="微软雅黑" size="13px" weight="400" font-style="" opacity="1" y="9.375" transform="rotate(0)"><tspan id="SvgjsTspan1552" dy="16" x="86.5"><tspan id="SvgjsTspan1553" style="text-decoration:;">RFID READER</tspan></tspan></text></g></g><g id="SvgjsG1554" transform="translate(436,290)"><path id="SvgjsPath1555" d="M 13.666666666666666 0L 159.33333333333334 0C 177.55555555555554 0 177.55555555555554 41 159.33333333333334 41L 13.666666666666666 41C -4.555555555555555 41 -4.555555555555555 0 13.666666666666666 0Z" stroke="rgba(50,50,50,1)" stroke-width="2" fill-opacity="1" fill="#ffffff"></path><g id="SvgjsG1556"><text id="SvgjsText1557" font-family="微软雅黑" text-anchor="middle" font-size="13px" width="153px" fill="#323232" font-weight="400" align="middle" lineHeight="125%" anchor="middle" family="微软雅黑" size="13px" weight="400" font-style="" opacity="1" y="9.375" transform="rotate(0)"><tspan id="SvgjsTspan1558" dy="16" x="86.5"><tspan id="SvgjsTspan1559" style="text-decoration:;">RFID TAG</tspan></tspan></text></g></g><g id="SvgjsG1560"><path id="SvgjsPath1561" d="M156.5 368L156.5 350L156.5 350L156.5 334.6" stroke="#323232" stroke-width="2" fill="none" marker-end="url(#SvgjsMarker1562)"></path><rect id="SvgjsRect1564" width="52" height="16" x="130.5" y="343.3" fill="#ffffff"></rect><text id="SvgjsText1565" font-family="微软雅黑" text-anchor="middle" font-size="13px" width="52px" fill="#323232" font-weight="400" align="top" lineHeight="16px" anchor="middle" family="微软雅黑" size="13px" weight="400" font-style="" opacity="1" y="340.675" transform="rotate(0)"><tspan id="SvgjsTspan1566" dy="16" x="156.5"><tspan id="SvgjsTspan1567" style="text-decoration:;">数据读写</tspan></tspan></text></g><g id="SvgjsG1568" transform="translate(70,211)"><path id="SvgjsPath1569" d="M 0 0L 173 0L 173 41L 0 41Z" stroke="rgba(50,50,50,1)" stroke-width="2" fill-opacity="1" fill="#ffffff"></path><g id="SvgjsG1570"><text id="SvgjsText1571" font-family="微软雅黑" text-anchor="middle" font-size="13px" width="153px" fill="#323232" font-weight="400" align="middle" lineHeight="125%" anchor="middle" family="微软雅黑" size="13px" weight="400" font-style="" opacity="1" y="9.375" transform="rotate(0)"><tspan id="SvgjsTspan1572" dy="16" x="86.5"><tspan id="SvgjsTspan1573" style="text-decoration:;">调制解调芯片</tspan></tspan></text></g></g><g id="SvgjsG1574" transform="translate(436,211)"><path id="SvgjsPath1575" d="M 0 0L 173 0L 173 41L 0 41Z" stroke="rgba(50,50,50,1)" stroke-width="2" fill-opacity="1" fill="#ffffff"></path><g id="SvgjsG1576"><text id="SvgjsText1577" font-family="微软雅黑" text-anchor="middle" font-size="13px" width="153px" fill="#323232" font-weight="400" align="middle" lineHeight="125%" anchor="middle" family="微软雅黑" size="13px" weight="400" font-style="" opacity="1" y="9.375" transform="rotate(0)"><tspan id="SvgjsTspan1578" dy="16" x="86.5"><tspan id="SvgjsTspan1579" style="text-decoration:;">调制解调芯片</tspan></tspan></text></g></g><g id="SvgjsG1580"><path id="SvgjsPath1581" d="M244 231.5L339.5 231.5L339.5 231.5L432.4 231.5" stroke-dasharray="10,5,3,5" stroke="#323232" stroke-width="2" fill="none" marker-end="url(#SvgjsMarker1582)"></path><rect id="SvgjsRect1584" width="130" height="16" x="273.2" y="223.5" fill="#ffffff"></rect><text id="SvgjsText1585" font-family="微软雅黑" text-anchor="middle" font-size="13px" width="130px" fill="#323232" font-weight="400" align="top" lineHeight="16px" anchor="middle" family="微软雅黑" size="13px" weight="400" font-style="" opacity="1" y="220.875" transform="rotate(0)"><tspan id="SvgjsTspan1586" dy="16" x="338.2"><tspan id="SvgjsTspan1587" style="text-decoration:;">调制后的交变信号通信</tspan></tspan></text></g><g id="SvgjsG1588"><path id="SvgjsPath1589" d="M156.5 289L156.5 271L156.5 271L156.5 255.60000000000002" stroke="#323232" stroke-width="2" fill="none" marker-end="url(#SvgjsMarker1590)"></path><rect id="SvgjsRect1592" width="56" height="16" x="128.5" y="264.3" fill="#ffffff"></rect><text id="SvgjsText1593" font-family="微软雅黑" text-anchor="middle" font-size="13px" width="56px" fill="#323232" font-weight="400" align="top" lineHeight="16px" anchor="middle" family="微软雅黑" size="13px" weight="400" font-style="" opacity="1" y="261.675" transform="rotate(0)"><tspan id="SvgjsTspan1594" dy="16" x="156.5"><tspan id="SvgjsTspan1595" style="text-decoration:;">调制/解调</tspan></tspan></text></g><g id="SvgjsG1596" transform="translate(70,53)"><path id="SvgjsPath1597" d="M 0 0L 173 0L 173 41L 0 41Z" stroke="rgba(50,50,50,1)" stroke-width="2" fill-opacity="1" fill="#ffffff"></path><g id="SvgjsG1598"><text id="SvgjsText1599" font-family="微软雅黑" text-anchor="middle" font-size="13px" width="153px" fill="#323232" font-weight="400" align="middle" lineHeight="125%" anchor="middle" family="微软雅黑" size="13px" weight="400" font-style="" opacity="1" y="9.375" transform="rotate(0)"><tspan id="SvgjsTspan1600" dy="16" x="86.5"><tspan id="SvgjsTspan1601" style="text-decoration:;">天线</tspan></tspan></text></g></g><g id="SvgjsG1602" transform="translate(436,53)"><path id="SvgjsPath1603" d="M 0 0L 173 0L 173 41L 0 41Z" stroke="rgba(50,50,50,1)" stroke-width="2" fill-opacity="1" fill="#ffffff"></path><g id="SvgjsG1604"><text id="SvgjsText1605" font-family="微软雅黑" text-anchor="middle" font-size="13px" width="153px" fill="#323232" font-weight="400" align="middle" lineHeight="125%" anchor="middle" family="微软雅黑" size="13px" weight="400" font-style="" opacity="1" y="9.375" transform="rotate(0)"><tspan id="SvgjsTspan1606" dy="16" x="86.5"><tspan id="SvgjsTspan1607" style="text-decoration:;">天线</tspan></tspan></text></g></g><g id="SvgjsG1608"><path id="SvgjsPath1609" d="M244 73.5L339.5 73.5L339.5 73.5L432.4 73.5" stroke="#323232" stroke-width="2" fill="none" marker-end="url(#SvgjsMarker1610)"></path><rect id="SvgjsRect1612" width="52" height="16" x="312.2" y="65.5" fill="#ffffff"></rect><text id="SvgjsText1613" font-family="微软雅黑" text-anchor="middle" font-size="13px" width="52px" fill="#323232" font-weight="400" align="top" lineHeight="16px" anchor="middle" family="微软雅黑" size="13px" weight="400" font-style="" opacity="1" y="62.875" transform="rotate(0)"><tspan id="SvgjsTspan1614" dy="16" x="338.2"><tspan id="SvgjsTspan1615" style="text-decoration:;">无线通信</tspan></tspan></text></g><g id="SvgjsG1616"><path id="SvgjsPath1617" d="M156.5 210L156.5 192L156.5 192L156.5 176.6" stroke="#323232" stroke-width="2" fill="none" marker-end="url(#SvgjsMarker1618)"></path><rect id="SvgjsRect1620" width="52" height="16" x="130.5" y="185.29999999999998" fill="#ffffff"></rect><text id="SvgjsText1621" font-family="微软雅黑" text-anchor="middle" font-size="13px" width="52px" fill="#323232" font-weight="400" align="top" lineHeight="16px" anchor="middle" family="微软雅黑" size="13px" weight="400" font-style="" opacity="1" y="182.67499999999998" transform="rotate(0)"><tspan id="SvgjsTspan1622" dy="16" x="156.5"><tspan id="SvgjsTspan1623" style="text-decoration:;">交变电路</tspan></tspan></text></g><g id="SvgjsG1624"><path id="SvgjsPath1625" d="M522.5 95L522.5 113L522.5 113L522.5 128.4" stroke="#323232" stroke-width="2" fill="none" marker-end="url(#SvgjsMarker1626)"></path><rect id="SvgjsRect1628" width="130" height="16" x="457.5" y="103.7" fill="#ffffff"></rect><text id="SvgjsText1629" font-family="微软雅黑" text-anchor="middle" font-size="13px" width="130px" fill="#323232" font-weight="400" align="top" lineHeight="16px" anchor="middle" family="微软雅黑" size="13px" weight="400" font-style="" opacity="1" y="101.075" transform="rotate(0)"><tspan id="SvgjsTspan1630" dy="16" x="522.5"><tspan id="SvgjsTspan1631" style="text-decoration:;">包涵噪音的交变电信号</tspan></tspan></text></g><g id="SvgjsG1632" transform="translate(666,211)"><path id="SvgjsPath1633" d="M 0 0L 173 0L 173 41L 0 41Z" stroke="rgba(50,50,50,1)" stroke-width="2" fill-opacity="1" fill="#ffffff"></path><g id="SvgjsG1634"><text id="SvgjsText1635" font-family="微软雅黑" text-anchor="middle" font-size="13px" width="153px" fill="#323232" font-weight="400" align="middle" lineHeight="125%" anchor="middle" family="微软雅黑" size="13px" weight="400" font-style="" opacity="1" y="9.375" transform="rotate(0)"><tspan id="SvgjsTspan1636" dy="16" x="86.5"><tspan id="SvgjsTspan1637" style="text-decoration:;">电源</tspan></tspan></text></g></g><g id="SvgjsG1638"><path id="SvgjsPath1639" d="M610 152.5L752.5 152.5L752.5 207.39999999999998" stroke="#323232" stroke-width="2" fill="none" marker-end="url(#SvgjsMarker1640)"></path><rect id="SvgjsRect1642" width="52" height="16" x="682.7" y="144.5" fill="#ffffff"></rect><text id="SvgjsText1643" font-family="微软雅黑" text-anchor="middle" font-size="13px" width="52px" fill="#323232" font-weight="400" align="top" lineHeight="16px" anchor="middle" family="微软雅黑" size="13px" weight="400" font-style="" opacity="1" y="141.875" transform="rotate(0)"><tspan id="SvgjsTspan1644" dy="16" x="708.7"><tspan id="SvgjsTspan1645" style="text-decoration:;">整流电路</tspan></tspan></text></g><g id="SvgjsG1646" transform="translate(70,132)"><path id="SvgjsPath1647" d="M 0 0L 173 0L 173 41L 0 41Z" stroke="rgba(50,50,50,1)" stroke-width="2" fill-opacity="1" fill="#ffffff"></path><g id="SvgjsG1648"><text id="SvgjsText1649" font-family="微软雅黑" text-anchor="middle" font-size="13px" width="153px" fill="#323232" font-weight="400" align="middle" lineHeight="125%" anchor="middle" family="微软雅黑" size="13px" weight="400" font-style="" opacity="1" y="9.375" transform="rotate(0)"><tspan id="SvgjsTspan1650" dy="16" x="86.5"><tspan id="SvgjsTspan1651" style="text-decoration:;">滤波与阻抗匹配电路</tspan></tspan></text></g></g><g id="SvgjsG1652" transform="translate(436,132)"><path id="SvgjsPath1653" d="M 0 0L 173 0L 173 41L 0 41Z" stroke="rgba(50,50,50,1)" stroke-width="2" fill-opacity="1" fill="#ffffff"></path><g id="SvgjsG1654"><text id="SvgjsText1655" font-family="微软雅黑" text-anchor="middle" font-size="13px" width="153px" fill="#323232" font-weight="400" align="middle" lineHeight="125%" anchor="middle" family="微软雅黑" size="13px" weight="400" font-style="" opacity="1" y="9.375" transform="rotate(0)"><tspan id="SvgjsTspan1656" dy="16" x="86.5"><tspan id="SvgjsTspan1657" style="text-decoration:;">滤波与阻抗匹配电路</tspan></tspan></text></g></g><g id="SvgjsG1658"><path id="SvgjsPath1659" d="M156.5 131L156.5 113L156.5 113L156.5 97.6" stroke="#323232" stroke-width="2" fill="none" marker-end="url(#SvgjsMarker1660)"></path><rect id="SvgjsRect1662" width="104" height="16" x="104.5" y="106.3" fill="#ffffff"></rect><text id="SvgjsText1663" font-family="微软雅黑" text-anchor="middle" font-size="13px" width="104px" fill="#323232" font-weight="400" align="top" lineHeight="16px" anchor="middle" family="微软雅黑" size="13px" weight="400" font-style="" opacity="1" y="103.675" transform="rotate(0)"><tspan id="SvgjsTspan1664" dy="16" x="156.5"><tspan id="SvgjsTspan1665" style="text-decoration:;">理想的交变电信号</tspan></tspan></text></g><g id="SvgjsG1666"><path id="SvgjsPath1667" d="M522.5 174L522.5 192L522.5 192L522.5 207.39999999999998" stroke="#323232" stroke-width="2" fill="none" marker-end="url(#SvgjsMarker1668)"></path><rect id="SvgjsRect1670" width="104" height="16" x="470.5" y="182.7" fill="#ffffff"></rect><text id="SvgjsText1671" font-family="微软雅黑" text-anchor="middle" font-size="13px" width="104px" fill="#323232" font-weight="400" align="top" lineHeight="16px" anchor="middle" family="微软雅黑" size="13px" weight="400" font-style="" opacity="1" y="180.075" transform="rotate(0)"><tspan id="SvgjsTspan1672" dy="16" x="522.5"><tspan id="SvgjsTspan1673" style="text-decoration:;">理想的交变电信号</tspan></tspan></text></g><g id="SvgjsG1674"><path id="SvgjsPath1675" d="M522.5 253L522.5 271L522.5 271L522.5 286.4" stroke="#323232" stroke-width="2" fill="none" marker-end="url(#SvgjsMarker1676)"></path><rect id="SvgjsRect1678" width="52" height="16" x="496.5" y="261.7" fill="#ffffff"></rect><text id="SvgjsText1679" font-family="微软雅黑" text-anchor="middle" font-size="13px" width="52px" fill="#323232" font-weight="400" align="top" lineHeight="16px" anchor="middle" family="微软雅黑" size="13px" weight="400" font-style="" opacity="1" y="259.075" transform="rotate(0)"><tspan id="SvgjsTspan1680" dy="16" x="522.5"><tspan id="SvgjsTspan1681" style="text-decoration:;">调制解调</tspan></tspan></text></g><g id="SvgjsG1682"><path id="SvgjsPath1683" d="M665 231.5L637.5 231.5L637.5 231.5L612.6 231.5" stroke="#323232" stroke-width="2" fill="none" marker-end="url(#SvgjsMarker1684)"></path><rect id="SvgjsRect1686" width="26" height="16" x="625.8000000000001" y="223.5" fill="#ffffff"></rect><text id="SvgjsText1687" font-family="微软雅黑" text-anchor="middle" font-size="13px" width="26px" fill="#323232" font-weight="400" align="top" lineHeight="16px" anchor="middle" family="微软雅黑" size="13px" weight="400" font-style="" opacity="1" y="220.875" transform="rotate(0)"><tspan id="SvgjsTspan1688" dy="16" x="638.8000000000001"><tspan id="SvgjsTspan1689" style="text-decoration:;">供电</tspan></tspan></text></g><g id="SvgjsG1690"><path id="SvgjsPath1691" d="M522.5 332L522.5 350L522.5 350L522.5 365.4" stroke="#323232" stroke-width="2" fill="none" marker-end="url(#SvgjsMarker1692)"></path><rect id="SvgjsRect1694" width="26" height="16" x="509.5" y="340.7" fill="#ffffff"></rect><text id="SvgjsText1695" font-family="微软雅黑" text-anchor="middle" font-size="13px" width="26px" fill="#323232" font-weight="400" align="top" lineHeight="16px" anchor="middle" family="微软雅黑" size="13px" weight="400" font-style="" opacity="1" y="338.075" transform="rotate(0)"><tspan id="SvgjsTspan1696" dy="16" x="522.5"><tspan id="SvgjsTspan1697" style="text-decoration:;">指令</tspan></tspan></text></g><g id="SvgjsG1698"><path id="SvgjsPath1699" d="M244 152.5L339.5 152.5L339.5 152.5L432.4 152.5" stroke-dasharray="10,5,3,5" stroke="#323232" stroke-width="2" fill="none" marker-end="url(#SvgjsMarker1700)"></path></g><g id="SvgjsG1702" transform="translate(436,369)"><path id="SvgjsPath1703" d="M 0 0L 173 0L 173 41L 0 41Z" stroke="rgba(50,50,50,1)" stroke-width="2" fill-opacity="1" fill="#ffffff"></path><g id="SvgjsG1704"><text id="SvgjsText1705" font-family="微软雅黑" text-anchor="middle" font-size="13px" width="153px" fill="#323232" font-weight="400" align="middle" lineHeight="125%" anchor="middle" family="微软雅黑" size="13px" weight="400" font-style="" opacity="1" y="9.375" transform="rotate(0)"><tspan id="SvgjsTspan1706" dy="16" x="86.5"><tspan id="SvgjsTspan1707" style="text-decoration:;">IC芯片</tspan></tspan></text></g></g><g id="SvgjsG1708"><path id="SvgjsPath1709" d="M522.5 411L522.5 468.5L522.5 468.5L522.5 523.4" stroke="#323232" stroke-width="2" fill="none" marker-end="url(#SvgjsMarker1710)"></path><rect id="SvgjsRect1712" width="26" height="16" x="509.5" y="459.2" fill="#ffffff"></rect><text id="SvgjsText1713" font-family="微软雅黑" text-anchor="middle" font-size="13px" width="26px" fill="#323232" font-weight="400" align="top" lineHeight="16px" anchor="middle" family="微软雅黑" size="13px" weight="400" font-style="" opacity="1" y="456.575" transform="rotate(0)"><tspan id="SvgjsTspan1714" dy="16" x="522.5"><tspan id="SvgjsTspan1715" style="text-decoration:;">操作</tspan></tspan></text></g><g id="SvgjsG1716"><path id="SvgjsPath1717" d="M752.5 253L752.5 389.5L612.6 389.5" stroke="#323232" stroke-width="2" fill="none" marker-end="url(#SvgjsMarker1718)"></path></g><g id="SvgjsG1720" transform="translate(25,424)"><path id="SvgjsPath1721" d="M 0 0L 35 0L 35 28L 0 28Z" stroke="none" fill="none"></path><g id="SvgjsG1722"><text id="SvgjsText1723" font-family="微软雅黑" text-anchor="middle" font-size="13px" width="35px" fill="#323232" font-weight="700" align="middle" lineHeight="125%" anchor="middle" family="微软雅黑" size="13px" weight="700" font-style="" opacity="1" y="2.875" transform="rotate(0)"><tspan id="SvgjsTspan1724" dy="16" x="17.5"><tspan id="SvgjsTspan1725" style="text-decoration:;">1</tspan></tspan></text></g></g><g id="SvgjsG1726" transform="translate(25,273.5)"><path id="SvgjsPath1727" d="M 0 0L 35 0L 35 28L 0 28Z" stroke="none" fill="none"></path><g id="SvgjsG1728"><text id="SvgjsText1729" font-family="微软雅黑" text-anchor="middle" font-size="13px" width="35px" fill="#323232" font-weight="700" align="middle" lineHeight="125%" anchor="middle" family="微软雅黑" size="13px" weight="700" font-style="" opacity="1" y="2.875" transform="rotate(0)"><tspan id="SvgjsTspan1730" dy="16" x="17.5"><tspan id="SvgjsTspan1731" style="text-decoration:;">2</tspan></tspan></text></g></g><g id="SvgjsG1732" transform="translate(25,123.5)"><path id="SvgjsPath1733" d="M 0 0L 35 0L 35 28L 0 28Z" stroke="none" fill="none"></path><g id="SvgjsG1734"><text id="SvgjsText1735" font-family="微软雅黑" text-anchor="middle" font-size="13px" width="35px" fill="#323232" font-weight="700" align="middle" lineHeight="125%" anchor="middle" family="微软雅黑" size="13px" weight="700" font-style="" opacity="1" y="2.875" transform="rotate(0)"><tspan id="SvgjsTspan1736" dy="16" x="17.5"><tspan id="SvgjsTspan1737" style="text-decoration:;">3</tspan></tspan></text></g></g><g id="SvgjsG1738" transform="translate(25,25)"><path id="SvgjsPath1739" d="M 0 0L 35 0L 35 28L 0 28Z" stroke="none" fill="none"></path><g id="SvgjsG1740"><text id="SvgjsText1741" font-family="微软雅黑" text-anchor="middle" font-size="13px" width="35px" fill="#323232" font-weight="700" align="middle" lineHeight="125%" anchor="middle" family="微软雅黑" size="13px" weight="700" font-style="" opacity="1" y="2.875" transform="rotate(0)"><tspan id="SvgjsTspan1742" dy="16" x="17.5"><tspan id="SvgjsTspan1743" style="text-decoration:;">4</tspan></tspan></text></g></g><g id="SvgjsG1744" transform="translate(816,123.5)"><path id="SvgjsPath1745" d="M 0 0L 35 0L 35 28L 0 28Z" stroke="none" fill="none"></path><g id="SvgjsG1746"><text id="SvgjsText1747" font-family="微软雅黑" text-anchor="middle" font-size="13px" width="35px" fill="#323232" font-weight="700" align="middle" lineHeight="125%" anchor="middle" family="微软雅黑" size="13px" weight="700" font-style="" opacity="1" y="2.875" transform="rotate(0)"><tspan id="SvgjsTspan1748" dy="16" x="17.5"><tspan id="SvgjsTspan1749" style="text-decoration:;">5</tspan></tspan></text></g></g><g id="SvgjsG1750" transform="translate(631,273.5)"><path id="SvgjsPath1751" d="M 0 0L 35 0L 35 28L 0 28Z" stroke="none" fill="none"></path><g id="SvgjsG1752"><text id="SvgjsText1753" font-family="微软雅黑" text-anchor="middle" font-size="13px" width="35px" fill="#323232" font-weight="700" align="middle" lineHeight="125%" anchor="middle" family="微软雅黑" size="13px" weight="700" font-style="" opacity="1" y="2.875" transform="rotate(0)"><tspan id="SvgjsTspan1754" dy="16" x="17.5"><tspan id="SvgjsTspan1755" style="text-decoration:;">6</tspan></tspan></text></g></g></svg>